<svg width="1920" height="359" viewBox="0 0 1920 359" fill="none" xmlns="http://www.w3.org/2000/svg">
<path d="M2013.64 0.121967C2021.59 0.31279 2029.54 0.503613 2037.72 0.700219C2104.58 36.3906 2146.04 78.5989 2118.72 118.18C2091.29 151.633 2019.48 175.131 1924.23 190.929C1696.41 227.007 1390 224.948 1133.61 225.969C1127.18 225.994 1127.18 225.994 1120.62 226.02C1076.93 226.192 1033.24 226.349 989.535 226.469C907.152 226.698 824.904 227.052 742.827 228.271C739.573 228.319 736.319 228.367 732.966 228.416C643.909 229.758 556.014 232.166 469.967 238.301C466.677 238.532 463.386 238.762 459.996 238.999C360.588 246.127 267.53 258.44 187.94 277.404C184.384 278.229 180.829 279.055 177.166 279.906C146.757 287.259 122.573 295.653 98.9341 305.023C97.2045 305.699 95.4749 306.374 93.693 307.071C55.0399 322.338 24.8306 339.865 5.29052 358.568C3.96615 358.536 2.64178 358.505 1.27728 358.472C-3.20737 343.937 5.82943 334.95 29.6146 323.158C34.1393 320.912 38.4623 318.635 42.7582 316.344C134.811 268.374 300.073 241.469 475.118 229.808C573.016 223.737 672.598 221.521 773.228 220.327C776.905 220.283 780.582 220.238 784.37 220.193C844.611 219.483 904.908 219.095 965.303 218.895C969.414 218.881 973.524 218.868 977.759 218.853C1015.58 218.731 1053.4 218.627 1091.22 218.533C1183.05 218.299 1274.63 217.806 1366.06 216.304C1369.85 216.243 1373.63 216.181 1377.53 216.118C1739.43 210.767 1927.67 182.797 2016.6 158.276C2077.79 133.853 2111.13 102.886 2097.64 71.1696C2085.28 47.1124 2054.11 25.4301 2017.17 3.60353C2013.61 1.36112 2013.61 1.36112 2013.64 0.121967Z" fill="#643366"/>
</svg>
