<svg width="24" height="20" viewBox="0 0 24 20" fill="none" xmlns="http://www.w3.org/2000/svg">
<path d="M20.317 2.36981C18.7873 1.66793 17.147 1.15081 15.4319 0.854636C15.4007 0.84892 15.3695 0.863205 15.3534 0.891775C15.1424 1.26699 14.9087 1.75649 14.7451 2.14123C12.9004 1.86506 11.0652 1.86506 9.25832 2.14123C9.09465 1.74794 8.85248 1.26699 8.64057 0.891775C8.62448 0.864158 8.59328 0.849873 8.56205 0.854636C6.84791 1.14986 5.20756 1.66698 3.67693 2.36981C3.66368 2.37552 3.65233 2.38505 3.64479 2.39742C0.533392 7.04578 -0.31895 11.5799 0.0991801 16.0578C0.101072 16.0797 0.11337 16.1006 0.130398 16.114C2.18321 17.6215 4.17171 18.5367 6.12328 19.1433C6.15451 19.1529 6.18761 19.1414 6.20748 19.1157C6.66913 18.4853 7.08064 17.8206 7.43348 17.1215C7.4543 17.0806 7.43442 17.032 7.39186 17.0158C6.73913 16.7682 6.1176 16.4663 5.51973 16.1235C5.47244 16.0959 5.46865 16.0282 5.51216 15.9959C5.63797 15.9016 5.76382 15.8035 5.88396 15.7044C5.90569 15.6864 5.93598 15.6825 5.96153 15.694C9.88928 17.4872 14.1415 17.4872 18.023 15.694C18.0485 15.6816 18.0788 15.6854 18.1015 15.7035C18.2216 15.8025 18.3475 15.9016 18.4742 15.9959C18.5177 16.0282 18.5149 16.0959 18.4676 16.1235C17.8697 16.473 17.2482 16.7682 16.5945 17.0149C16.552 17.0311 16.533 17.0806 16.5538 17.1215C16.9143 17.8196 17.3258 18.4843 17.7789 19.1148C17.7978 19.1414 17.8319 19.1529 17.8631 19.1433C19.8241 18.5367 21.8126 17.6215 23.8654 16.114C23.8834 16.1006 23.8948 16.0806 23.8967 16.0587C24.3971 10.8818 23.0585 6.38487 20.3482 2.39837C20.3416 2.38505 20.3303 2.37552 20.317 2.36981ZM8.02002 13.3312C6.8375 13.3312 5.86313 12.2456 5.86313 10.9123C5.86313 9.579 6.8186 8.49336 8.02002 8.49336C9.23087 8.49336 10.1958 9.58853 10.1769 10.9123C10.1769 12.2456 9.22141 13.3312 8.02002 13.3312ZM15.9947 13.3312C14.8123 13.3312 13.8379 12.2456 13.8379 10.9123C13.8379 9.579 14.7933 8.49336 15.9947 8.49336C17.2056 8.49336 18.1705 9.58853 18.1516 10.9123C18.1516 12.2456 17.2056 13.3312 15.9947 13.3312Z" fill="#2A3E5B"/>
</svg>
