<svg width="172" height="54" viewBox="0 0 172 54" fill="none" xmlns="http://www.w3.org/2000/svg">
<path d="M25.6424 25.0278C22.7072 24.1095 19.5051 24.3903 16.794 25.8041L13.1122 27.724C12.6637 27.9578 12.3799 28.4022 12.3672 28.8899V32.6704C12.4863 32.5702 12.6179 32.4818 12.7605 32.4075M25.6424 25.0278L25.7566 24.6946M25.6424 25.0278L34.3094 27.7396C35.089 27.9835 35.6205 28.6729 35.6331 29.456V33.032C35.3373 32.7356 34.9644 32.5056 34.5378 32.3721L23.5905 28.9469C21.9179 28.4236 20.0933 28.5837 18.5485 29.3893L12.7605 32.4075M12.7605 32.4075L12.9257 32.6965" stroke="#050505" stroke-width="0.673421"/>
<path d="M25.6424 25.0278C22.7072 24.1095 19.5051 24.3903 16.794 25.8041L13.1122 27.724C12.6637 27.9578 12.3799 28.4022 12.3672 28.8899V32.6704C12.4863 32.5702 12.6179 32.4818 12.7605 32.4075M25.6424 25.0278L25.7566 24.6946M25.6424 25.0278L34.3094 27.7396C35.089 27.9835 35.6205 28.6729 35.6331 29.456V33.032C35.3373 32.7356 34.9644 32.5056 34.5378 32.3721L23.5905 28.9469C21.9179 28.4236 20.0933 28.5837 18.5485 29.3893L12.7605 32.4075M12.7605 32.4075L12.9257 32.6965" stroke="black" stroke-opacity="0.2" stroke-width="0.673421"/>
<path d="M25.6424 25.0278C22.7072 24.1095 19.5051 24.3903 16.794 25.8041L13.1122 27.724C12.6637 27.9578 12.3799 28.4022 12.3672 28.8899V32.6704C12.4863 32.5702 12.6179 32.4818 12.7605 32.4075M25.6424 25.0278L25.7566 24.6946M25.6424 25.0278L34.3094 27.7396C35.089 27.9835 35.6205 28.6729 35.6331 29.456V33.032C35.3373 32.7356 34.9644 32.5056 34.5378 32.3721L23.5905 28.9469C21.9179 28.4236 20.0933 28.5837 18.5485 29.3893L12.7605 32.4075M12.7605 32.4075L12.9257 32.6965" stroke="black" stroke-opacity="0.2" stroke-width="0.673421"/>
<path d="M25.6424 25.0278C22.7072 24.1095 19.5051 24.3903 16.794 25.8041L13.1122 27.724C12.6637 27.9578 12.3799 28.4022 12.3672 28.8899V32.6704C12.4863 32.5702 12.6179 32.4818 12.7605 32.4075M25.6424 25.0278L25.7566 24.6946M25.6424 25.0278L34.3094 27.7396C35.089 27.9835 35.6205 28.6729 35.6331 29.456V33.032C35.3373 32.7356 34.9644 32.5056 34.5378 32.3721L23.5905 28.9469C21.9179 28.4236 20.0933 28.5837 18.5485 29.3893L12.7605 32.4075M12.7605 32.4075L12.9257 32.6965" stroke="black" stroke-opacity="0.2" stroke-width="0.673421"/>
<path d="M12 33.6926L12 28.3936C12.0138 29.3275 12.6472 30.15 13.5765 30.4408L22.2436 33.1525C25.275 34.1009 28.582 33.8108 31.3819 32.3508L35.0637 30.4309C35.6287 30.1363 35.9857 29.5759 36 28.9613V34.2603C35.9857 34.8749 35.6287 35.4353 35.0637 35.7299L31.3819 37.6498C28.582 39.1098 25.275 39.3999 22.2436 38.4515L13.5765 35.7397C12.6472 35.449 12.0138 34.6265 12 33.6926Z" fill="#050505"/>
<path d="M12 33.6926L12 28.3936C12.0138 29.3275 12.6472 30.15 13.5765 30.4408L22.2436 33.1525C25.275 34.1009 28.582 33.8108 31.3819 32.3508L35.0637 30.4309C35.6287 30.1363 35.9857 29.5759 36 28.9613V34.2603C35.9857 34.8749 35.6287 35.4353 35.0637 35.7299L31.3819 37.6498C28.582 39.1098 25.275 39.3999 22.2436 38.4515L13.5765 35.7397C12.6472 35.449 12.0138 34.6265 12 33.6926Z" fill="black" fill-opacity="0.2"/>
<path d="M12 33.6926L12 28.3936C12.0138 29.3275 12.6472 30.15 13.5765 30.4408L22.2436 33.1525C25.275 34.1009 28.582 33.8108 31.3819 32.3508L35.0637 30.4309C35.6287 30.1363 35.9857 29.5759 36 28.9613V34.2603C35.9857 34.8749 35.6287 35.4353 35.0637 35.7299L31.3819 37.6498C28.582 39.1098 25.275 39.3999 22.2436 38.4515L13.5765 35.7397C12.6472 35.449 12.0138 34.6265 12 33.6926Z" fill="black" fill-opacity="0.2"/>
<path d="M12 33.6926L12 28.3936C12.0138 29.3275 12.6472 30.15 13.5765 30.4408L22.2436 33.1525C25.275 34.1009 28.582 33.8108 31.3819 32.3508L35.0637 30.4309C35.6287 30.1363 35.9857 29.5759 36 28.9613V34.2603C35.9857 34.8749 35.6287 35.4353 35.0637 35.7299L31.3819 37.6498C28.582 39.1098 25.275 39.3999 22.2436 38.4515L13.5765 35.7397C12.6472 35.449 12.0138 34.6265 12 33.6926Z" fill="black" fill-opacity="0.2"/>
<path d="M25.6424 15.5312C22.7072 14.6129 19.5051 14.8938 16.794 16.3075L13.1122 18.2274C12.6637 18.4612 12.3799 18.9056 12.3672 19.3933V23.1738C12.4863 23.0737 12.6179 22.9852 12.7605 22.9108L18.5485 19.8927C20.0933 19.0871 21.9179 18.927 23.5905 19.4504L34.5378 22.8755C34.9644 23.009 35.3373 23.239 35.6331 23.5354V19.9594C35.6205 19.1763 35.089 18.4869 34.3094 18.2429L25.6424 15.5312ZM25.6424 15.5312L25.7566 15.198" stroke="#050505" stroke-width="0.673421"/>
<path d="M25.6424 15.5312C22.7072 14.6129 19.5051 14.8938 16.794 16.3075L13.1122 18.2274C12.6637 18.4612 12.3799 18.9056 12.3672 19.3933V23.1738C12.4863 23.0737 12.6179 22.9852 12.7605 22.9108L18.5485 19.8927C20.0933 19.0871 21.9179 18.927 23.5905 19.4504L34.5378 22.8755C34.9644 23.009 35.3373 23.239 35.6331 23.5354V19.9594C35.6205 19.1763 35.089 18.4869 34.3094 18.2429L25.6424 15.5312ZM25.6424 15.5312L25.7566 15.198" stroke="black" stroke-opacity="0.2" stroke-width="0.673421"/>
<path d="M25.6424 15.5312C22.7072 14.6129 19.5051 14.8938 16.794 16.3075L13.1122 18.2274C12.6637 18.4612 12.3799 18.9056 12.3672 19.3933V23.1738C12.4863 23.0737 12.6179 22.9852 12.7605 22.9108L18.5485 19.8927C20.0933 19.0871 21.9179 18.927 23.5905 19.4504L34.5378 22.8755C34.9644 23.009 35.3373 23.239 35.6331 23.5354V19.9594C35.6205 19.1763 35.089 18.4869 34.3094 18.2429L25.6424 15.5312ZM25.6424 15.5312L25.7566 15.198" stroke="black" stroke-opacity="0.2" stroke-width="0.673421"/>
<path d="M25.6424 15.5312C22.7072 14.6129 19.5051 14.8938 16.794 16.3075L13.1122 18.2274C12.6637 18.4612 12.3799 18.9056 12.3672 19.3933V23.1738C12.4863 23.0737 12.6179 22.9852 12.7605 22.9108L18.5485 19.8927C20.0933 19.0871 21.9179 18.927 23.5905 19.4504L34.5378 22.8755C34.9644 23.009 35.3373 23.239 35.6331 23.5354V19.9594C35.6205 19.1763 35.089 18.4869 34.3094 18.2429L25.6424 15.5312ZM25.6424 15.5312L25.7566 15.198" stroke="black" stroke-opacity="0.2" stroke-width="0.673421"/>
<path d="M12 24.1965L12 18.8975C12.0138 19.8314 12.6472 20.6539 13.5765 20.9447L22.2436 23.6564C25.275 24.6048 28.582 24.3147 31.3819 22.8547L35.0637 20.9348C35.6287 20.6402 35.9857 20.0798 36 19.4652V24.7642C35.9857 25.3788 35.6287 25.9392 35.0637 26.2338L31.3819 28.1537C28.582 29.6137 25.275 29.9038 22.2436 28.9553L13.5765 26.2436C12.6472 25.9529 12.0138 25.1304 12 24.1965Z" fill="#050505"/>
<path d="M12 24.1965L12 18.8975C12.0138 19.8314 12.6472 20.6539 13.5765 20.9447L22.2436 23.6564C25.275 24.6048 28.582 24.3147 31.3819 22.8547L35.0637 20.9348C35.6287 20.6402 35.9857 20.0798 36 19.4652V24.7642C35.9857 25.3788 35.6287 25.9392 35.0637 26.2338L31.3819 28.1537C28.582 29.6137 25.275 29.9038 22.2436 28.9553L13.5765 26.2436C12.6472 25.9529 12.0138 25.1304 12 24.1965Z" fill="black" fill-opacity="0.2"/>
<path d="M12 24.1965L12 18.8975C12.0138 19.8314 12.6472 20.6539 13.5765 20.9447L22.2436 23.6564C25.275 24.6048 28.582 24.3147 31.3819 22.8547L35.0637 20.9348C35.6287 20.6402 35.9857 20.0798 36 19.4652V24.7642C35.9857 25.3788 35.6287 25.9392 35.0637 26.2338L31.3819 28.1537C28.582 29.6137 25.275 29.9038 22.2436 28.9553L13.5765 26.2436C12.6472 25.9529 12.0138 25.1304 12 24.1965Z" fill="black" fill-opacity="0.2"/>
<path d="M12 24.1965L12 18.8975C12.0138 19.8314 12.6472 20.6539 13.5765 20.9447L22.2436 23.6564C25.275 24.6048 28.582 24.3147 31.3819 22.8547L35.0637 20.9348C35.6287 20.6402 35.9857 20.0798 36 19.4652V24.7642C35.9857 25.3788 35.6287 25.9392 35.0637 26.2338L31.3819 28.1537C28.582 29.6137 25.275 29.9038 22.2436 28.9553L13.5765 26.2436C12.6472 25.9529 12.0138 25.1304 12 24.1965Z" fill="black" fill-opacity="0.2"/>
<path d="M57.6 37.392C56.872 37.392 56.2093 37.2613 55.612 37C55.0147 36.72 54.5387 36.272 54.184 35.656C53.848 35.0213 53.6893 34.1907 53.708 33.164L53.792 26.136C53.792 25.7253 53.7267 25.4267 53.596 25.24C53.4653 25.0533 53.232 24.9227 52.896 24.848L52.56 24.736V24.232L57.348 23.308L57.656 23.616L57.516 27.564V33.92C57.516 34.5547 57.684 35.0213 58.02 35.32C58.3747 35.6 58.8133 35.74 59.336 35.74C59.8773 35.74 60.3627 35.6653 60.792 35.516C61.24 35.348 61.6973 35.1053 62.164 34.788L62.248 26.164C62.248 25.7347 62.1827 25.436 62.052 25.268C61.94 25.1 61.716 24.9693 61.38 24.876L61.072 24.792V24.288L65.748 23.308L66.056 23.616L65.972 27.564V34.9C65.972 35.292 66.0187 35.6093 66.112 35.852C66.224 36.076 66.4573 36.244 66.812 36.356L67.176 36.468V37L62.444 37.28L62.192 35.516C61.5573 36.0573 60.8667 36.5053 60.12 36.86C59.3733 37.2147 58.5333 37.392 57.6 37.392ZM68.0867 37V36.468L68.8427 36.3C69.2533 36.2067 69.58 36.076 69.8227 35.908C70.084 35.74 70.336 35.488 70.5787 35.152L73.6307 30.896L70.0187 25.184C69.832 24.904 69.6453 24.6893 69.4587 24.54C69.2907 24.3907 69.048 24.2787 68.7307 24.204L68.2547 24.092V23.56H75.2547V24.092L74.8347 24.204C74.4987 24.2787 74.2933 24.428 74.2187 24.652C74.1627 24.8573 74.228 25.1093 74.4147 25.408L76.5707 28.684L78.8667 25.492C79.072 25.1933 79.1653 24.932 79.1467 24.708C79.1467 24.484 78.9693 24.3347 78.6147 24.26L77.9987 24.092V23.56H82.3107V24.092L81.6387 24.232C81.2467 24.3253 80.9387 24.4653 80.7147 24.652C80.4907 24.82 80.2573 25.072 80.0147 25.408L77.0187 29.356L80.6867 35.068C81.116 35.7027 81.7133 36.1227 82.4787 36.328L83.0387 36.468V37H75.5067V36.468L75.9267 36.384C76.2627 36.2907 76.468 36.132 76.5427 35.908C76.636 35.684 76.58 35.432 76.3747 35.152L74.1067 31.624L71.6427 35.124C71.4373 35.4227 71.372 35.684 71.4467 35.908C71.5213 36.132 71.7173 36.2813 72.0347 36.356L72.5387 36.468V37H68.0867ZM87.5633 37.392C86.9099 37.392 86.3499 37.168 85.8833 36.72C85.4353 36.272 85.2113 35.7307 85.2113 35.096C85.2113 34.4427 85.4353 33.8827 85.8833 33.416C86.3499 32.9493 86.9099 32.716 87.5633 32.716C88.2166 32.716 88.7673 32.9493 89.2153 33.416C89.6819 33.8827 89.9153 34.4427 89.9153 35.096C89.9153 35.7307 89.6819 36.272 89.2153 36.72C88.7673 37.168 88.2166 37.392 87.5633 37.392ZM96.1549 37.084L91.2269 25.24C91.0216 24.7173 90.6576 24.3813 90.1349 24.232L89.5469 24.092V23.56H96.6309V24.092L95.9029 24.26C95.3056 24.4093 95.1282 24.792 95.3709 25.408L98.3109 33.22L101.055 25.464C101.148 25.1467 101.167 24.8947 101.111 24.708C101.074 24.5027 100.896 24.3627 100.579 24.288L99.7669 24.092V23.56H104.023V24.092L103.099 24.316C102.558 24.4467 102.194 24.7827 102.007 25.324L97.7789 37.084H96.1549ZM108.191 37.392C107.127 37.392 106.222 37.0933 105.475 36.496C104.747 35.88 104.383 35.0027 104.383 33.864C104.383 32.968 104.812 32.1467 105.671 31.4C106.548 30.6347 107.92 30.0747 109.787 29.72C110.104 29.6453 110.468 29.58 110.879 29.524C111.308 29.4493 111.728 29.3747 112.139 29.3V27.312C112.139 26.0427 111.98 25.1653 111.663 24.68C111.346 24.1947 110.842 23.952 110.151 23.952H110.067C109.638 23.952 109.292 24.092 109.031 24.372C108.788 24.6333 108.63 25.072 108.555 25.688L108.471 26.052C108.415 26.7987 108.219 27.3493 107.883 27.704C107.547 28.04 107.127 28.208 106.623 28.208C106.156 28.208 105.764 28.068 105.447 27.788C105.148 27.4893 104.999 27.1067 104.999 26.64C104.999 25.8747 105.26 25.2307 105.783 24.708C106.306 24.1853 106.996 23.7933 107.855 23.532C108.732 23.2707 109.675 23.14 110.683 23.14C112.344 23.14 113.614 23.5413 114.491 24.344C115.368 25.1467 115.807 26.4533 115.807 28.264V34.508C115.807 35.3107 116.19 35.712 116.955 35.712H117.599L117.879 36.02C117.543 36.4493 117.17 36.776 116.759 37C116.348 37.2427 115.788 37.364 115.079 37.364C114.276 37.364 113.632 37.1773 113.147 36.804C112.68 36.412 112.372 35.8987 112.223 35.264C111.626 35.8987 111.038 36.412 110.459 36.804C109.88 37.196 109.124 37.392 108.191 37.392ZM109.815 35.6C110.188 35.6 110.543 35.516 110.879 35.348C111.215 35.18 111.635 34.9 112.139 34.508V30.028C111.654 30.1027 111.159 30.196 110.655 30.308C109.852 30.4947 109.199 30.84 108.695 31.344C108.21 31.848 107.967 32.5293 107.967 33.388C107.967 34.1347 108.135 34.6947 108.471 35.068C108.826 35.4227 109.274 35.6 109.815 35.6ZM123.334 37.392C122.606 37.392 121.944 37.2613 121.346 37C120.749 36.72 120.273 36.272 119.918 35.656C119.582 35.0213 119.424 34.1907 119.442 33.164L119.526 26.136C119.526 25.7253 119.461 25.4267 119.33 25.24C119.2 25.0533 118.966 24.9227 118.63 24.848L118.294 24.736V24.232L123.082 23.308L123.39 23.616L123.25 27.564V33.92C123.25 34.5547 123.418 35.0213 123.754 35.32C124.109 35.6 124.548 35.74 125.07 35.74C125.612 35.74 126.097 35.6653 126.526 35.516C126.974 35.348 127.432 35.1053 127.898 34.788L127.982 26.164C127.982 25.7347 127.917 25.436 127.786 25.268C127.674 25.1 127.45 24.9693 127.114 24.876L126.806 24.792V24.288L131.482 23.308L131.79 23.616L131.706 27.564V34.9C131.706 35.292 131.753 35.6093 131.846 35.852C131.958 36.076 132.192 36.244 132.546 36.356L132.91 36.468V37L128.178 37.28L127.926 35.516C127.292 36.0573 126.601 36.5053 125.854 36.86C125.108 37.2147 124.268 37.392 123.334 37.392ZM134.101 37V36.468L134.521 36.356C135.137 36.1507 135.445 35.684 135.445 34.956C135.445 34.3213 135.445 33.6867 135.445 33.052C135.464 32.3987 135.473 31.7547 135.473 31.12V20.48C135.473 20.088 135.408 19.7987 135.277 19.612C135.146 19.4067 134.894 19.2573 134.521 19.164L134.101 19.052V18.52L139.001 17.344L139.365 17.596L139.253 21.544V34.956C139.272 35.3293 139.346 35.6373 139.477 35.88C139.626 36.104 139.878 36.2627 140.233 36.356L140.625 36.468V37H134.101ZM147.157 37.392C145.999 37.392 145.085 37.112 144.413 36.552C143.759 35.9733 143.433 35.04 143.433 33.752C143.433 33.304 143.433 32.884 143.433 32.492C143.451 32.0813 143.461 31.6053 143.461 31.064V24.428H141.473V23.812L142.229 23.7C142.77 23.6067 143.227 23.4387 143.601 23.196C143.993 22.9533 144.347 22.6173 144.665 22.188L146.485 19.668H147.325L147.241 23.56H150.433V24.428H147.213V33.976C147.213 34.648 147.353 35.152 147.633 35.488C147.931 35.824 148.295 35.992 148.725 35.992C149.098 35.992 149.434 35.908 149.733 35.74C150.031 35.5533 150.33 35.3107 150.629 35.012L150.993 35.432C150.638 36.048 150.143 36.5333 149.509 36.888C148.874 37.224 148.09 37.392 147.157 37.392Z" fill="#050505"/>
<path d="M57.6 37.392C56.872 37.392 56.2093 37.2613 55.612 37C55.0147 36.72 54.5387 36.272 54.184 35.656C53.848 35.0213 53.6893 34.1907 53.708 33.164L53.792 26.136C53.792 25.7253 53.7267 25.4267 53.596 25.24C53.4653 25.0533 53.232 24.9227 52.896 24.848L52.56 24.736V24.232L57.348 23.308L57.656 23.616L57.516 27.564V33.92C57.516 34.5547 57.684 35.0213 58.02 35.32C58.3747 35.6 58.8133 35.74 59.336 35.74C59.8773 35.74 60.3627 35.6653 60.792 35.516C61.24 35.348 61.6973 35.1053 62.164 34.788L62.248 26.164C62.248 25.7347 62.1827 25.436 62.052 25.268C61.94 25.1 61.716 24.9693 61.38 24.876L61.072 24.792V24.288L65.748 23.308L66.056 23.616L65.972 27.564V34.9C65.972 35.292 66.0187 35.6093 66.112 35.852C66.224 36.076 66.4573 36.244 66.812 36.356L67.176 36.468V37L62.444 37.28L62.192 35.516C61.5573 36.0573 60.8667 36.5053 60.12 36.86C59.3733 37.2147 58.5333 37.392 57.6 37.392ZM68.0867 37V36.468L68.8427 36.3C69.2533 36.2067 69.58 36.076 69.8227 35.908C70.084 35.74 70.336 35.488 70.5787 35.152L73.6307 30.896L70.0187 25.184C69.832 24.904 69.6453 24.6893 69.4587 24.54C69.2907 24.3907 69.048 24.2787 68.7307 24.204L68.2547 24.092V23.56H75.2547V24.092L74.8347 24.204C74.4987 24.2787 74.2933 24.428 74.2187 24.652C74.1627 24.8573 74.228 25.1093 74.4147 25.408L76.5707 28.684L78.8667 25.492C79.072 25.1933 79.1653 24.932 79.1467 24.708C79.1467 24.484 78.9693 24.3347 78.6147 24.26L77.9987 24.092V23.56H82.3107V24.092L81.6387 24.232C81.2467 24.3253 80.9387 24.4653 80.7147 24.652C80.4907 24.82 80.2573 25.072 80.0147 25.408L77.0187 29.356L80.6867 35.068C81.116 35.7027 81.7133 36.1227 82.4787 36.328L83.0387 36.468V37H75.5067V36.468L75.9267 36.384C76.2627 36.2907 76.468 36.132 76.5427 35.908C76.636 35.684 76.58 35.432 76.3747 35.152L74.1067 31.624L71.6427 35.124C71.4373 35.4227 71.372 35.684 71.4467 35.908C71.5213 36.132 71.7173 36.2813 72.0347 36.356L72.5387 36.468V37H68.0867ZM87.5633 37.392C86.9099 37.392 86.3499 37.168 85.8833 36.72C85.4353 36.272 85.2113 35.7307 85.2113 35.096C85.2113 34.4427 85.4353 33.8827 85.8833 33.416C86.3499 32.9493 86.9099 32.716 87.5633 32.716C88.2166 32.716 88.7673 32.9493 89.2153 33.416C89.6819 33.8827 89.9153 34.4427 89.9153 35.096C89.9153 35.7307 89.6819 36.272 89.2153 36.72C88.7673 37.168 88.2166 37.392 87.5633 37.392ZM96.1549 37.084L91.2269 25.24C91.0216 24.7173 90.6576 24.3813 90.1349 24.232L89.5469 24.092V23.56H96.6309V24.092L95.9029 24.26C95.3056 24.4093 95.1282 24.792 95.3709 25.408L98.3109 33.22L101.055 25.464C101.148 25.1467 101.167 24.8947 101.111 24.708C101.074 24.5027 100.896 24.3627 100.579 24.288L99.7669 24.092V23.56H104.023V24.092L103.099 24.316C102.558 24.4467 102.194 24.7827 102.007 25.324L97.7789 37.084H96.1549ZM108.191 37.392C107.127 37.392 106.222 37.0933 105.475 36.496C104.747 35.88 104.383 35.0027 104.383 33.864C104.383 32.968 104.812 32.1467 105.671 31.4C106.548 30.6347 107.92 30.0747 109.787 29.72C110.104 29.6453 110.468 29.58 110.879 29.524C111.308 29.4493 111.728 29.3747 112.139 29.3V27.312C112.139 26.0427 111.98 25.1653 111.663 24.68C111.346 24.1947 110.842 23.952 110.151 23.952H110.067C109.638 23.952 109.292 24.092 109.031 24.372C108.788 24.6333 108.63 25.072 108.555 25.688L108.471 26.052C108.415 26.7987 108.219 27.3493 107.883 27.704C107.547 28.04 107.127 28.208 106.623 28.208C106.156 28.208 105.764 28.068 105.447 27.788C105.148 27.4893 104.999 27.1067 104.999 26.64C104.999 25.8747 105.26 25.2307 105.783 24.708C106.306 24.1853 106.996 23.7933 107.855 23.532C108.732 23.2707 109.675 23.14 110.683 23.14C112.344 23.14 113.614 23.5413 114.491 24.344C115.368 25.1467 115.807 26.4533 115.807 28.264V34.508C115.807 35.3107 116.19 35.712 116.955 35.712H117.599L117.879 36.02C117.543 36.4493 117.17 36.776 116.759 37C116.348 37.2427 115.788 37.364 115.079 37.364C114.276 37.364 113.632 37.1773 113.147 36.804C112.68 36.412 112.372 35.8987 112.223 35.264C111.626 35.8987 111.038 36.412 110.459 36.804C109.88 37.196 109.124 37.392 108.191 37.392ZM109.815 35.6C110.188 35.6 110.543 35.516 110.879 35.348C111.215 35.18 111.635 34.9 112.139 34.508V30.028C111.654 30.1027 111.159 30.196 110.655 30.308C109.852 30.4947 109.199 30.84 108.695 31.344C108.21 31.848 107.967 32.5293 107.967 33.388C107.967 34.1347 108.135 34.6947 108.471 35.068C108.826 35.4227 109.274 35.6 109.815 35.6ZM123.334 37.392C122.606 37.392 121.944 37.2613 121.346 37C120.749 36.72 120.273 36.272 119.918 35.656C119.582 35.0213 119.424 34.1907 119.442 33.164L119.526 26.136C119.526 25.7253 119.461 25.4267 119.33 25.24C119.2 25.0533 118.966 24.9227 118.63 24.848L118.294 24.736V24.232L123.082 23.308L123.39 23.616L123.25 27.564V33.92C123.25 34.5547 123.418 35.0213 123.754 35.32C124.109 35.6 124.548 35.74 125.07 35.74C125.612 35.74 126.097 35.6653 126.526 35.516C126.974 35.348 127.432 35.1053 127.898 34.788L127.982 26.164C127.982 25.7347 127.917 25.436 127.786 25.268C127.674 25.1 127.45 24.9693 127.114 24.876L126.806 24.792V24.288L131.482 23.308L131.79 23.616L131.706 27.564V34.9C131.706 35.292 131.753 35.6093 131.846 35.852C131.958 36.076 132.192 36.244 132.546 36.356L132.91 36.468V37L128.178 37.28L127.926 35.516C127.292 36.0573 126.601 36.5053 125.854 36.86C125.108 37.2147 124.268 37.392 123.334 37.392ZM134.101 37V36.468L134.521 36.356C135.137 36.1507 135.445 35.684 135.445 34.956C135.445 34.3213 135.445 33.6867 135.445 33.052C135.464 32.3987 135.473 31.7547 135.473 31.12V20.48C135.473 20.088 135.408 19.7987 135.277 19.612C135.146 19.4067 134.894 19.2573 134.521 19.164L134.101 19.052V18.52L139.001 17.344L139.365 17.596L139.253 21.544V34.956C139.272 35.3293 139.346 35.6373 139.477 35.88C139.626 36.104 139.878 36.2627 140.233 36.356L140.625 36.468V37H134.101ZM147.157 37.392C145.999 37.392 145.085 37.112 144.413 36.552C143.759 35.9733 143.433 35.04 143.433 33.752C143.433 33.304 143.433 32.884 143.433 32.492C143.451 32.0813 143.461 31.6053 143.461 31.064V24.428H141.473V23.812L142.229 23.7C142.77 23.6067 143.227 23.4387 143.601 23.196C143.993 22.9533 144.347 22.6173 144.665 22.188L146.485 19.668H147.325L147.241 23.56H150.433V24.428H147.213V33.976C147.213 34.648 147.353 35.152 147.633 35.488C147.931 35.824 148.295 35.992 148.725 35.992C149.098 35.992 149.434 35.908 149.733 35.74C150.031 35.5533 150.33 35.3107 150.629 35.012L150.993 35.432C150.638 36.048 150.143 36.5333 149.509 36.888C148.874 37.224 148.09 37.392 147.157 37.392Z" fill="black" fill-opacity="0.2"/>
<path d="M57.6 37.392C56.872 37.392 56.2093 37.2613 55.612 37C55.0147 36.72 54.5387 36.272 54.184 35.656C53.848 35.0213 53.6893 34.1907 53.708 33.164L53.792 26.136C53.792 25.7253 53.7267 25.4267 53.596 25.24C53.4653 25.0533 53.232 24.9227 52.896 24.848L52.56 24.736V24.232L57.348 23.308L57.656 23.616L57.516 27.564V33.92C57.516 34.5547 57.684 35.0213 58.02 35.32C58.3747 35.6 58.8133 35.74 59.336 35.74C59.8773 35.74 60.3627 35.6653 60.792 35.516C61.24 35.348 61.6973 35.1053 62.164 34.788L62.248 26.164C62.248 25.7347 62.1827 25.436 62.052 25.268C61.94 25.1 61.716 24.9693 61.38 24.876L61.072 24.792V24.288L65.748 23.308L66.056 23.616L65.972 27.564V34.9C65.972 35.292 66.0187 35.6093 66.112 35.852C66.224 36.076 66.4573 36.244 66.812 36.356L67.176 36.468V37L62.444 37.28L62.192 35.516C61.5573 36.0573 60.8667 36.5053 60.12 36.86C59.3733 37.2147 58.5333 37.392 57.6 37.392ZM68.0867 37V36.468L68.8427 36.3C69.2533 36.2067 69.58 36.076 69.8227 35.908C70.084 35.74 70.336 35.488 70.5787 35.152L73.6307 30.896L70.0187 25.184C69.832 24.904 69.6453 24.6893 69.4587 24.54C69.2907 24.3907 69.048 24.2787 68.7307 24.204L68.2547 24.092V23.56H75.2547V24.092L74.8347 24.204C74.4987 24.2787 74.2933 24.428 74.2187 24.652C74.1627 24.8573 74.228 25.1093 74.4147 25.408L76.5707 28.684L78.8667 25.492C79.072 25.1933 79.1653 24.932 79.1467 24.708C79.1467 24.484 78.9693 24.3347 78.6147 24.26L77.9987 24.092V23.56H82.3107V24.092L81.6387 24.232C81.2467 24.3253 80.9387 24.4653 80.7147 24.652C80.4907 24.82 80.2573 25.072 80.0147 25.408L77.0187 29.356L80.6867 35.068C81.116 35.7027 81.7133 36.1227 82.4787 36.328L83.0387 36.468V37H75.5067V36.468L75.9267 36.384C76.2627 36.2907 76.468 36.132 76.5427 35.908C76.636 35.684 76.58 35.432 76.3747 35.152L74.1067 31.624L71.6427 35.124C71.4373 35.4227 71.372 35.684 71.4467 35.908C71.5213 36.132 71.7173 36.2813 72.0347 36.356L72.5387 36.468V37H68.0867ZM87.5633 37.392C86.9099 37.392 86.3499 37.168 85.8833 36.72C85.4353 36.272 85.2113 35.7307 85.2113 35.096C85.2113 34.4427 85.4353 33.8827 85.8833 33.416C86.3499 32.9493 86.9099 32.716 87.5633 32.716C88.2166 32.716 88.7673 32.9493 89.2153 33.416C89.6819 33.8827 89.9153 34.4427 89.9153 35.096C89.9153 35.7307 89.6819 36.272 89.2153 36.72C88.7673 37.168 88.2166 37.392 87.5633 37.392ZM96.1549 37.084L91.2269 25.24C91.0216 24.7173 90.6576 24.3813 90.1349 24.232L89.5469 24.092V23.56H96.6309V24.092L95.9029 24.26C95.3056 24.4093 95.1282 24.792 95.3709 25.408L98.3109 33.22L101.055 25.464C101.148 25.1467 101.167 24.8947 101.111 24.708C101.074 24.5027 100.896 24.3627 100.579 24.288L99.7669 24.092V23.56H104.023V24.092L103.099 24.316C102.558 24.4467 102.194 24.7827 102.007 25.324L97.7789 37.084H96.1549ZM108.191 37.392C107.127 37.392 106.222 37.0933 105.475 36.496C104.747 35.88 104.383 35.0027 104.383 33.864C104.383 32.968 104.812 32.1467 105.671 31.4C106.548 30.6347 107.92 30.0747 109.787 29.72C110.104 29.6453 110.468 29.58 110.879 29.524C111.308 29.4493 111.728 29.3747 112.139 29.3V27.312C112.139 26.0427 111.98 25.1653 111.663 24.68C111.346 24.1947 110.842 23.952 110.151 23.952H110.067C109.638 23.952 109.292 24.092 109.031 24.372C108.788 24.6333 108.63 25.072 108.555 25.688L108.471 26.052C108.415 26.7987 108.219 27.3493 107.883 27.704C107.547 28.04 107.127 28.208 106.623 28.208C106.156 28.208 105.764 28.068 105.447 27.788C105.148 27.4893 104.999 27.1067 104.999 26.64C104.999 25.8747 105.26 25.2307 105.783 24.708C106.306 24.1853 106.996 23.7933 107.855 23.532C108.732 23.2707 109.675 23.14 110.683 23.14C112.344 23.14 113.614 23.5413 114.491 24.344C115.368 25.1467 115.807 26.4533 115.807 28.264V34.508C115.807 35.3107 116.19 35.712 116.955 35.712H117.599L117.879 36.02C117.543 36.4493 117.17 36.776 116.759 37C116.348 37.2427 115.788 37.364 115.079 37.364C114.276 37.364 113.632 37.1773 113.147 36.804C112.68 36.412 112.372 35.8987 112.223 35.264C111.626 35.8987 111.038 36.412 110.459 36.804C109.88 37.196 109.124 37.392 108.191 37.392ZM109.815 35.6C110.188 35.6 110.543 35.516 110.879 35.348C111.215 35.18 111.635 34.9 112.139 34.508V30.028C111.654 30.1027 111.159 30.196 110.655 30.308C109.852 30.4947 109.199 30.84 108.695 31.344C108.21 31.848 107.967 32.5293 107.967 33.388C107.967 34.1347 108.135 34.6947 108.471 35.068C108.826 35.4227 109.274 35.6 109.815 35.6ZM123.334 37.392C122.606 37.392 121.944 37.2613 121.346 37C120.749 36.72 120.273 36.272 119.918 35.656C119.582 35.0213 119.424 34.1907 119.442 33.164L119.526 26.136C119.526 25.7253 119.461 25.4267 119.33 25.24C119.2 25.0533 118.966 24.9227 118.63 24.848L118.294 24.736V24.232L123.082 23.308L123.39 23.616L123.25 27.564V33.92C123.25 34.5547 123.418 35.0213 123.754 35.32C124.109 35.6 124.548 35.74 125.07 35.74C125.612 35.74 126.097 35.6653 126.526 35.516C126.974 35.348 127.432 35.1053 127.898 34.788L127.982 26.164C127.982 25.7347 127.917 25.436 127.786 25.268C127.674 25.1 127.45 24.9693 127.114 24.876L126.806 24.792V24.288L131.482 23.308L131.79 23.616L131.706 27.564V34.9C131.706 35.292 131.753 35.6093 131.846 35.852C131.958 36.076 132.192 36.244 132.546 36.356L132.91 36.468V37L128.178 37.28L127.926 35.516C127.292 36.0573 126.601 36.5053 125.854 36.86C125.108 37.2147 124.268 37.392 123.334 37.392ZM134.101 37V36.468L134.521 36.356C135.137 36.1507 135.445 35.684 135.445 34.956C135.445 34.3213 135.445 33.6867 135.445 33.052C135.464 32.3987 135.473 31.7547 135.473 31.12V20.48C135.473 20.088 135.408 19.7987 135.277 19.612C135.146 19.4067 134.894 19.2573 134.521 19.164L134.101 19.052V18.52L139.001 17.344L139.365 17.596L139.253 21.544V34.956C139.272 35.3293 139.346 35.6373 139.477 35.88C139.626 36.104 139.878 36.2627 140.233 36.356L140.625 36.468V37H134.101ZM147.157 37.392C145.999 37.392 145.085 37.112 144.413 36.552C143.759 35.9733 143.433 35.04 143.433 33.752C143.433 33.304 143.433 32.884 143.433 32.492C143.451 32.0813 143.461 31.6053 143.461 31.064V24.428H141.473V23.812L142.229 23.7C142.77 23.6067 143.227 23.4387 143.601 23.196C143.993 22.9533 144.347 22.6173 144.665 22.188L146.485 19.668H147.325L147.241 23.56H150.433V24.428H147.213V33.976C147.213 34.648 147.353 35.152 147.633 35.488C147.931 35.824 148.295 35.992 148.725 35.992C149.098 35.992 149.434 35.908 149.733 35.74C150.031 35.5533 150.33 35.3107 150.629 35.012L150.993 35.432C150.638 36.048 150.143 36.5333 149.509 36.888C148.874 37.224 148.09 37.392 147.157 37.392Z" fill="black" fill-opacity="0.2"/>
<path d="M57.6 37.392C56.872 37.392 56.2093 37.2613 55.612 37C55.0147 36.72 54.5387 36.272 54.184 35.656C53.848 35.0213 53.6893 34.1907 53.708 33.164L53.792 26.136C53.792 25.7253 53.7267 25.4267 53.596 25.24C53.4653 25.0533 53.232 24.9227 52.896 24.848L52.56 24.736V24.232L57.348 23.308L57.656 23.616L57.516 27.564V33.92C57.516 34.5547 57.684 35.0213 58.02 35.32C58.3747 35.6 58.8133 35.74 59.336 35.74C59.8773 35.74 60.3627 35.6653 60.792 35.516C61.24 35.348 61.6973 35.1053 62.164 34.788L62.248 26.164C62.248 25.7347 62.1827 25.436 62.052 25.268C61.94 25.1 61.716 24.9693 61.38 24.876L61.072 24.792V24.288L65.748 23.308L66.056 23.616L65.972 27.564V34.9C65.972 35.292 66.0187 35.6093 66.112 35.852C66.224 36.076 66.4573 36.244 66.812 36.356L67.176 36.468V37L62.444 37.28L62.192 35.516C61.5573 36.0573 60.8667 36.5053 60.12 36.86C59.3733 37.2147 58.5333 37.392 57.6 37.392ZM68.0867 37V36.468L68.8427 36.3C69.2533 36.2067 69.58 36.076 69.8227 35.908C70.084 35.74 70.336 35.488 70.5787 35.152L73.6307 30.896L70.0187 25.184C69.832 24.904 69.6453 24.6893 69.4587 24.54C69.2907 24.3907 69.048 24.2787 68.7307 24.204L68.2547 24.092V23.56H75.2547V24.092L74.8347 24.204C74.4987 24.2787 74.2933 24.428 74.2187 24.652C74.1627 24.8573 74.228 25.1093 74.4147 25.408L76.5707 28.684L78.8667 25.492C79.072 25.1933 79.1653 24.932 79.1467 24.708C79.1467 24.484 78.9693 24.3347 78.6147 24.26L77.9987 24.092V23.56H82.3107V24.092L81.6387 24.232C81.2467 24.3253 80.9387 24.4653 80.7147 24.652C80.4907 24.82 80.2573 25.072 80.0147 25.408L77.0187 29.356L80.6867 35.068C81.116 35.7027 81.7133 36.1227 82.4787 36.328L83.0387 36.468V37H75.5067V36.468L75.9267 36.384C76.2627 36.2907 76.468 36.132 76.5427 35.908C76.636 35.684 76.58 35.432 76.3747 35.152L74.1067 31.624L71.6427 35.124C71.4373 35.4227 71.372 35.684 71.4467 35.908C71.5213 36.132 71.7173 36.2813 72.0347 36.356L72.5387 36.468V37H68.0867ZM87.5633 37.392C86.9099 37.392 86.3499 37.168 85.8833 36.72C85.4353 36.272 85.2113 35.7307 85.2113 35.096C85.2113 34.4427 85.4353 33.8827 85.8833 33.416C86.3499 32.9493 86.9099 32.716 87.5633 32.716C88.2166 32.716 88.7673 32.9493 89.2153 33.416C89.6819 33.8827 89.9153 34.4427 89.9153 35.096C89.9153 35.7307 89.6819 36.272 89.2153 36.72C88.7673 37.168 88.2166 37.392 87.5633 37.392ZM96.1549 37.084L91.2269 25.24C91.0216 24.7173 90.6576 24.3813 90.1349 24.232L89.5469 24.092V23.56H96.6309V24.092L95.9029 24.26C95.3056 24.4093 95.1282 24.792 95.3709 25.408L98.3109 33.22L101.055 25.464C101.148 25.1467 101.167 24.8947 101.111 24.708C101.074 24.5027 100.896 24.3627 100.579 24.288L99.7669 24.092V23.56H104.023V24.092L103.099 24.316C102.558 24.4467 102.194 24.7827 102.007 25.324L97.7789 37.084H96.1549ZM108.191 37.392C107.127 37.392 106.222 37.0933 105.475 36.496C104.747 35.88 104.383 35.0027 104.383 33.864C104.383 32.968 104.812 32.1467 105.671 31.4C106.548 30.6347 107.92 30.0747 109.787 29.72C110.104 29.6453 110.468 29.58 110.879 29.524C111.308 29.4493 111.728 29.3747 112.139 29.3V27.312C112.139 26.0427 111.98 25.1653 111.663 24.68C111.346 24.1947 110.842 23.952 110.151 23.952H110.067C109.638 23.952 109.292 24.092 109.031 24.372C108.788 24.6333 108.63 25.072 108.555 25.688L108.471 26.052C108.415 26.7987 108.219 27.3493 107.883 27.704C107.547 28.04 107.127 28.208 106.623 28.208C106.156 28.208 105.764 28.068 105.447 27.788C105.148 27.4893 104.999 27.1067 104.999 26.64C104.999 25.8747 105.26 25.2307 105.783 24.708C106.306 24.1853 106.996 23.7933 107.855 23.532C108.732 23.2707 109.675 23.14 110.683 23.14C112.344 23.14 113.614 23.5413 114.491 24.344C115.368 25.1467 115.807 26.4533 115.807 28.264V34.508C115.807 35.3107 116.19 35.712 116.955 35.712H117.599L117.879 36.02C117.543 36.4493 117.17 36.776 116.759 37C116.348 37.2427 115.788 37.364 115.079 37.364C114.276 37.364 113.632 37.1773 113.147 36.804C112.68 36.412 112.372 35.8987 112.223 35.264C111.626 35.8987 111.038 36.412 110.459 36.804C109.88 37.196 109.124 37.392 108.191 37.392ZM109.815 35.6C110.188 35.6 110.543 35.516 110.879 35.348C111.215 35.18 111.635 34.9 112.139 34.508V30.028C111.654 30.1027 111.159 30.196 110.655 30.308C109.852 30.4947 109.199 30.84 108.695 31.344C108.21 31.848 107.967 32.5293 107.967 33.388C107.967 34.1347 108.135 34.6947 108.471 35.068C108.826 35.4227 109.274 35.6 109.815 35.6ZM123.334 37.392C122.606 37.392 121.944 37.2613 121.346 37C120.749 36.72 120.273 36.272 119.918 35.656C119.582 35.0213 119.424 34.1907 119.442 33.164L119.526 26.136C119.526 25.7253 119.461 25.4267 119.33 25.24C119.2 25.0533 118.966 24.9227 118.63 24.848L118.294 24.736V24.232L123.082 23.308L123.39 23.616L123.25 27.564V33.92C123.25 34.5547 123.418 35.0213 123.754 35.32C124.109 35.6 124.548 35.74 125.07 35.74C125.612 35.74 126.097 35.6653 126.526 35.516C126.974 35.348 127.432 35.1053 127.898 34.788L127.982 26.164C127.982 25.7347 127.917 25.436 127.786 25.268C127.674 25.1 127.45 24.9693 127.114 24.876L126.806 24.792V24.288L131.482 23.308L131.79 23.616L131.706 27.564V34.9C131.706 35.292 131.753 35.6093 131.846 35.852C131.958 36.076 132.192 36.244 132.546 36.356L132.91 36.468V37L128.178 37.28L127.926 35.516C127.292 36.0573 126.601 36.5053 125.854 36.86C125.108 37.2147 124.268 37.392 123.334 37.392ZM134.101 37V36.468L134.521 36.356C135.137 36.1507 135.445 35.684 135.445 34.956C135.445 34.3213 135.445 33.6867 135.445 33.052C135.464 32.3987 135.473 31.7547 135.473 31.12V20.48C135.473 20.088 135.408 19.7987 135.277 19.612C135.146 19.4067 134.894 19.2573 134.521 19.164L134.101 19.052V18.52L139.001 17.344L139.365 17.596L139.253 21.544V34.956C139.272 35.3293 139.346 35.6373 139.477 35.88C139.626 36.104 139.878 36.2627 140.233 36.356L140.625 36.468V37H134.101ZM147.157 37.392C145.999 37.392 145.085 37.112 144.413 36.552C143.759 35.9733 143.433 35.04 143.433 33.752C143.433 33.304 143.433 32.884 143.433 32.492C143.451 32.0813 143.461 31.6053 143.461 31.064V24.428H141.473V23.812L142.229 23.7C142.77 23.6067 143.227 23.4387 143.601 23.196C143.993 22.9533 144.347 22.6173 144.665 22.188L146.485 19.668H147.325L147.241 23.56H150.433V24.428H147.213V33.976C147.213 34.648 147.353 35.152 147.633 35.488C147.931 35.824 148.295 35.992 148.725 35.992C149.098 35.992 149.434 35.908 149.733 35.74C150.031 35.5533 150.33 35.3107 150.629 35.012L150.993 35.432C150.638 36.048 150.143 36.5333 149.509 36.888C148.874 37.224 148.09 37.392 147.157 37.392Z" fill="black" fill-opacity="0.2"/>
</svg>
