<svg width="504" height="367" viewBox="0 0 504 367" fill="none" xmlns="http://www.w3.org/2000/svg">
<path d="M434.638 312.339L53.8828 300.738L157.76 54.4498L449.278 117.69L449.165 119.157L434.638 312.339ZM58.9188 297.506L431.506 308.858L445.68 120.373L159.784 58.3516L58.9188 297.506Z" fill="#F3F5FD"/>
<path d="M266.852 206.793L157.408 57.4011L160.138 55.4011L267.927 202.535L446.753 117.504L448.206 120.561L266.852 206.793Z" fill="#F3F5FD"/>
<path d="M432.161 312.025L267.248 206.581L57.0923 300.667L55.71 297.578L267.532 202.746L433.984 309.174L432.161 312.025Z" fill="#F3F5FD"/>
<path d="M158.773 112.802C189.922 112.802 215.174 87.5502 215.174 56.4009C215.174 25.2515 189.922 0 158.773 0C127.624 0 102.372 25.2515 102.372 56.4009C102.372 87.5502 127.624 112.802 158.773 112.802Z" fill="#DEE8F5"/>
<path d="M447.479 175.433C478.628 175.433 503.88 150.182 503.88 119.032C503.88 87.8831 478.628 62.6316 447.479 62.6316C416.33 62.6316 391.078 87.8831 391.078 119.032C391.078 150.182 416.33 175.433 447.479 175.433Z" fill="#DEE8F5"/>
<path d="M267.389 261.064C298.539 261.064 323.79 235.813 323.79 204.664C323.79 173.514 298.539 148.263 267.389 148.263C236.24 148.263 210.988 173.514 210.988 204.664C210.988 235.813 236.24 261.064 267.389 261.064Z" fill="#DEE8F5"/>
<path d="M56.4009 355.523C87.5502 355.523 112.802 330.272 112.802 299.122C112.802 267.973 87.5502 242.722 56.4009 242.722C25.2515 242.722 0 267.973 0 299.122C0 330.272 25.2515 355.523 56.4009 355.523Z" fill="#F3F5FD"/>
<path d="M433.072 367C464.221 367 489.473 341.749 489.473 310.599C489.473 279.45 464.221 254.198 433.072 254.198C401.922 254.198 376.671 279.45 376.671 310.599C376.671 341.749 401.922 367 433.072 367Z" fill="#DEE8F5"/>
<path d="M297.47 191.143C297.653 193.399 295.303 195.5 294.915 197.629C294.514 199.829 295.952 202.623 295.014 204.597C294.063 206.599 290.979 207.248 289.552 208.927C288.126 210.606 287.981 213.753 286.159 215.014C284.362 216.255 281.373 215.289 279.266 216.039C277.231 216.764 275.537 219.423 273.28 219.606C271.023 219.788 268.924 217.438 266.797 217.051C264.598 216.65 261.803 218.087 259.829 217.149C257.827 216.198 257.178 213.114 255.5 211.687C253.821 210.261 250.673 210.117 249.412 208.294C248.168 206.497 249.137 203.508 248.387 201.402C247.662 199.366 245.003 197.672 244.821 195.415C244.638 193.159 246.988 191.059 247.376 188.932C247.777 186.733 246.339 183.938 247.277 181.964C248.228 179.962 251.312 179.313 252.739 177.635C254.165 175.956 254.309 172.809 256.132 171.547C257.928 170.306 260.918 171.272 263.024 170.522C265.06 169.797 266.754 167.138 269.01 166.956C271.266 166.774 273.367 169.123 275.496 169.511C277.696 169.912 280.491 168.474 282.464 169.412C284.466 170.364 285.115 173.448 286.794 174.874C288.473 176.3 291.62 176.444 292.882 178.267C294.123 180.063 293.157 183.053 293.907 185.159C294.629 187.195 297.289 188.887 297.47 191.143Z" fill="#050505"/>
<path d="M261.185 217.672C261.185 217.672 265.941 215.155 264.891 202.206L274.717 200.393C274.717 200.393 273.602 212.001 278.569 215.691L261.185 217.672Z" fill="#E98862"/>
<g opacity="0.15">
<path d="M276.559 213.262L268.403 207.012L274.813 206.951C274.997 209.145 275.589 211.286 276.559 213.262Z" fill="#050505"/>
</g>
<path d="M259.321 197.181C259.998 201.11 262.141 204.832 265.602 206.104C269.377 207.606 273.463 208.162 277.503 207.722C288.258 206.85 286.152 182.395 281.051 177.64C275.949 172.886 260.962 175.881 259.132 183.824C258.186 187.932 258.677 193.441 259.321 197.181Z" fill="#E98862"/>
<path d="M274.71 194.168C275.202 194.168 275.6 193.769 275.6 193.277C275.6 192.785 275.202 192.387 274.71 192.387C274.218 192.387 273.819 192.785 273.819 193.277C273.819 193.769 274.218 194.168 274.71 194.168Z" fill="#050505"/>
<path d="M281.739 193.598C282.231 193.598 282.63 193.2 282.63 192.708C282.63 192.216 282.231 191.817 281.739 191.817C281.247 191.817 280.849 192.216 280.849 192.708C280.849 193.2 281.247 193.598 281.739 193.598Z" fill="#050505"/>
<path d="M283.286 190.81H283.28L280.92 190.778C280.865 190.778 280.811 190.766 280.76 190.744C280.71 190.723 280.664 190.691 280.626 190.652C280.587 190.613 280.557 190.566 280.537 190.515C280.516 190.464 280.506 190.409 280.507 190.354C280.507 190.299 280.518 190.244 280.54 190.194C280.561 190.143 280.593 190.097 280.632 190.059C280.672 190.02 280.718 189.99 280.77 189.97C280.821 189.95 280.876 189.94 280.931 189.941L283.291 189.973C283.4 189.978 283.502 190.024 283.577 190.103C283.652 190.181 283.693 190.286 283.693 190.394C283.692 190.503 283.649 190.607 283.573 190.685C283.497 190.762 283.394 190.807 283.286 190.81Z" fill="#050505"/>
<path d="M272.788 191.661C272.686 191.661 272.586 191.624 272.51 191.556C272.433 191.488 272.384 191.394 272.372 191.292C272.36 191.19 272.386 191.087 272.445 191.003C272.504 190.919 272.591 190.859 272.691 190.836L275.019 190.278C275.073 190.264 275.129 190.26 275.184 190.268C275.239 190.276 275.292 190.295 275.34 190.324C275.388 190.352 275.429 190.39 275.462 190.435C275.495 190.48 275.519 190.531 275.532 190.585C275.545 190.64 275.547 190.696 275.538 190.751C275.529 190.806 275.509 190.858 275.479 190.905C275.449 190.953 275.411 190.993 275.365 191.025C275.319 191.057 275.268 191.08 275.213 191.092L272.886 191.649C272.854 191.657 272.821 191.661 272.788 191.661Z" fill="#050505"/>
<path d="M275.115 200.295C275.115 200.295 278.404 200.645 280.71 199.844C280.71 199.844 280.69 202.01 278.087 202.221C275.484 202.432 275.115 200.295 275.115 200.295Z" fill="white"/>
<path d="M266.567 187.01C267.212 196.217 266.198 205.466 263.575 214.315C263.575 214.315 256.077 201.387 254.918 190.623C253.83 180.532 261.271 174.582 266.295 173.463C285.389 169.211 286.763 183.158 286.763 183.158C283.284 190.391 264.5 190.36 264.5 190.36" fill="#050505"/>
<path d="M270.206 197.114C270.256 198.095 269.921 199.057 269.274 199.795C268.626 200.534 267.717 200.991 266.738 201.071C265.759 201.15 264.787 200.845 264.029 200.22C263.271 199.596 262.786 198.7 262.677 197.724C262.628 197.228 262.68 196.727 262.829 196.252C262.978 195.776 263.221 195.335 263.543 194.955C263.866 194.576 264.262 194.265 264.707 194.041C265.153 193.818 265.639 193.686 266.136 193.654C268.829 193.568 270.038 195.034 270.206 197.114Z" fill="#E98862"/>
<g opacity="0.15">
<path d="M278.66 198.224C278.586 198.224 278.515 198.197 278.459 198.149C278.404 198.101 278.367 198.035 278.356 197.962C278.345 197.889 278.361 197.815 278.4 197.752C278.439 197.69 278.499 197.644 278.57 197.622L280.382 197.067L279.117 194.243C279.101 194.206 279.092 194.166 279.091 194.126C279.09 194.085 279.097 194.045 279.111 194.007C279.126 193.969 279.147 193.935 279.175 193.905C279.203 193.876 279.237 193.852 279.274 193.836C279.311 193.819 279.351 193.81 279.391 193.809C279.432 193.808 279.472 193.815 279.51 193.829C279.548 193.844 279.582 193.866 279.612 193.894C279.641 193.921 279.665 193.955 279.681 193.992L281.091 197.133C281.109 197.173 281.118 197.216 281.118 197.26C281.118 197.304 281.109 197.347 281.09 197.386C281.072 197.426 281.046 197.461 281.014 197.49C280.981 197.519 280.942 197.541 280.901 197.554L278.755 198.21C278.724 198.219 278.692 198.224 278.66 198.224Z" fill="#050505"/>
</g>
<path d="M186.907 105.297L183.557 96.5546C183.613 99.9399 183.89 103.318 184.386 106.667C176.868 110.488 168.59 112.579 160.16 112.787C151.729 112.994 143.359 111.314 135.662 107.869C136.936 103.922 137.581 99.7994 137.573 95.6522C137.545 93.6779 137.323 91.7112 136.908 89.7808L131.544 105.804C127.423 103.53 123.603 100.748 120.174 97.5247L132.599 60.4355L132.689 60.4693C133.323 59.0034 134.233 57.6728 135.368 56.5494C138.183 53.7407 143.033 51.9302 148.949 51.9246C149.389 55.3707 170.331 55.3819 170.494 52.0035C171.289 52.0148 171.915 52.0261 172.299 52.043C181.424 52.4378 184.673 57.2996 185.463 64.0846L198.04 96.8874C194.692 100.141 190.953 102.966 186.907 105.297Z" fill="#9EBCEA"/>
<path d="M170.493 52.0018C170.333 55.3858 168.495 60.3587 162.819 60.7338C155.256 61.2318 149.389 55.3717 148.944 51.9222H148.963C156.412 51.9222 166.152 51.9346 170.493 52.0018Z" fill="#E98862"/>
<path d="M150.483 55.3237C150.483 55.3237 155.239 52.8031 154.177 39.8552L164 38.0334C164 38.0334 162.897 49.6419 167.867 53.3277L150.483 55.3237Z" fill="#E98862"/>
<g opacity="0.15">
<path d="M165.854 50.9008L157.692 44.6573L164.102 44.5907C164.288 46.7848 164.882 48.9249 165.854 50.9008Z" fill="#050505"/>
</g>
<path d="M148.603 34.8347C149.283 38.763 151.427 42.4832 154.892 43.7517C158.668 45.2506 162.754 45.8029 166.792 45.3602C177.547 44.4781 175.422 20.0249 170.314 15.2754C165.205 10.5259 150.223 13.5332 148.4 21.4795C147.46 25.5866 147.956 31.0959 148.603 34.8347Z" fill="#E98862"/>
<path d="M173.864 16.1195C173.543 15.6101 173.093 15.1943 172.56 14.9143C167.784 12.317 158.934 11.4174 154.681 12.6904C149.75 14.1658 143.566 18.3006 145.153 28.3247C145.219 28.7466 145.292 29.1532 145.366 29.5525C143.809 29.2872 142.208 29.4556 140.74 30.0392C139.273 30.6228 137.993 31.599 137.043 32.8611C136.093 34.1232 135.509 35.6224 135.354 37.1945C135.199 38.7666 135.48 40.351 136.166 41.7742C136.851 43.1973 137.915 44.4044 139.241 45.2631C140.567 46.1219 142.104 46.5992 143.683 46.6428C145.262 46.6864 146.823 46.2947 148.194 45.5104C149.565 44.7261 150.694 43.5797 151.457 42.1965C152.189 42.8285 152.979 43.3892 153.818 43.871C154.406 44.2207 154.551 43.9359 154.753 43.2822C155.466 41.0008 156.163 31.9755 155.607 25.4223L167.196 25.0219L169.215 19.2769L170.87 25.0219H174.818C175.342 21.9091 175.887 18.3807 173.864 16.1195Z" fill="#050505"/>
<path d="M163.987 31.8093C164.479 31.8093 164.878 31.4106 164.878 30.9188C164.878 30.4269 164.479 30.0282 163.987 30.0282C163.495 30.0282 163.097 30.4269 163.097 30.9188C163.097 31.4106 163.495 31.8093 163.987 31.8093Z" fill="#050505"/>
<path d="M171.016 31.2329C171.507 31.2329 171.906 30.8342 171.906 30.3424C171.906 29.8505 171.507 29.4518 171.016 29.4518C170.524 29.4518 170.125 29.8505 170.125 30.3424C170.125 30.8342 170.524 31.2329 171.016 31.2329Z" fill="#050505"/>
<path d="M172.56 28.4432H172.555L170.195 28.4139C170.084 28.4124 169.978 28.3669 169.9 28.2874C169.823 28.2078 169.78 28.1008 169.781 27.9898C169.787 27.8803 169.834 27.7771 169.912 27.7007C169.991 27.6242 170.095 27.58 170.205 27.5769L172.565 27.6062C172.676 27.6068 172.782 27.6515 172.86 27.7304C172.938 27.8093 172.982 27.916 172.981 28.027C172.98 28.138 172.936 28.2442 172.857 28.3222C172.778 28.4003 172.671 28.4438 172.56 28.4432Z" fill="#050505"/>
<path d="M162.063 29.3037C161.96 29.3039 161.861 29.2665 161.784 29.1984C161.708 29.1302 161.658 29.0363 161.646 28.9343C161.634 28.8323 161.66 28.7295 161.719 28.6454C161.778 28.5612 161.866 28.5017 161.966 28.478L164.293 27.9179C164.346 27.905 164.402 27.9028 164.456 27.9113C164.51 27.9199 164.562 27.939 164.609 27.9677C164.656 27.9964 164.697 28.034 164.729 28.0785C164.762 28.1229 164.785 28.1733 164.798 28.2267C164.811 28.2802 164.813 28.3356 164.804 28.3899C164.796 28.4442 164.777 28.4963 164.748 28.5432C164.719 28.5901 164.682 28.6309 164.637 28.6632C164.593 28.6956 164.542 28.7189 164.489 28.7318L162.162 29.2924C162.129 29.3001 162.096 29.3038 162.063 29.3037Z" fill="#050505"/>
<path d="M159.352 33.0977C159.406 34.0804 159.073 35.0449 158.426 35.7864C157.779 36.5279 156.869 36.9877 155.888 37.0682C154.907 37.1486 153.934 36.8433 153.175 36.2172C152.415 35.591 151.93 34.6935 151.823 33.7153C151.774 33.2193 151.825 32.7184 151.973 32.2426C152.122 31.7667 152.364 31.3256 152.687 30.9456C153.009 30.5655 153.405 30.2542 153.85 30.0303C154.296 29.8063 154.782 29.6743 155.279 29.6421C157.971 29.5541 159.181 31.0205 159.352 33.0977Z" fill="#E98862"/>
<g opacity="0.15">
<path d="M167.942 35.8599C167.869 35.8599 167.797 35.8335 167.742 35.7855C167.686 35.7375 167.649 35.671 167.638 35.5982C167.627 35.5254 167.643 35.4511 167.682 35.3888C167.721 35.3265 167.782 35.2803 167.852 35.2587L169.664 34.702L168.396 31.8792C168.38 31.8421 168.371 31.8022 168.369 31.7617C168.368 31.7211 168.375 31.6807 168.39 31.6428C168.404 31.6049 168.426 31.5703 168.454 31.5408C168.482 31.5113 168.515 31.4877 168.552 31.4711C168.589 31.4546 168.629 31.4455 168.67 31.4443C168.71 31.4432 168.751 31.4501 168.788 31.4646C168.826 31.479 168.861 31.5009 168.891 31.5287C168.92 31.5566 168.944 31.59 168.96 31.6271L170.37 34.768C170.388 34.8077 170.397 34.8508 170.397 34.8944C170.397 34.938 170.388 34.9811 170.37 35.0208C170.352 35.0605 170.326 35.0959 170.293 35.1247C170.26 35.1534 170.222 35.1749 170.18 35.1876L168.037 35.8464C168.006 35.8557 167.974 35.8603 167.942 35.8599Z" fill="#050505"/>
</g>
<path d="M164.398 37.9352C164.398 37.9352 167.688 38.2821 169.993 37.4767C169.993 37.4767 169.975 39.6425 167.372 39.8562C164.769 40.07 164.398 37.9352 164.398 37.9352Z" fill="white"/>
<path d="M460.09 124.911C460.09 124.911 455.335 122.39 456.397 109.443L446.573 107.621C446.573 107.621 447.677 119.23 442.707 122.915L460.09 124.911Z" fill="#E98862"/>
<g opacity="0.15">
<path d="M444.722 120.489L452.883 114.245L446.473 114.178C446.287 116.373 445.693 118.513 444.722 120.489Z" fill="#050505"/>
</g>
<path d="M461.971 104.422C461.291 108.35 459.147 112.07 455.682 113.339C451.906 114.838 447.82 115.39 443.781 114.947C433.027 114.065 435.152 89.6122 440.26 84.8621C445.368 80.112 460.351 83.1205 462.174 91.0662C463.114 95.1739 462.618 100.683 461.971 104.422Z" fill="#E98862"/>
<path d="M432.735 82.5929C432.735 79.3448 436.777 74.0228 447.561 81.3617L447.571 81.3684C450.373 81.2904 453.172 81.5965 455.89 82.2782C457.838 82.8411 459.658 83.7766 461.249 85.0328C464.25 87.4682 466.437 91.4738 465.418 97.9125C463.647 109.1 459.065 112.086 456.755 113.458C456.166 113.808 456.021 113.523 455.819 112.87C455.179 110.455 454.721 107.994 454.449 105.51C454.097 102.924 451.777 101.285 452.057 98.1923C452.156 97.111 453.897 93.1483 448.509 93.1049C445.478 93.0806 446.611 93.2008 443.376 93.2008C442.915 93.2008 442.508 93.1799 442.135 93.1444H442.131C430.964 93.1483 432.735 85.8416 432.735 82.5929Z" fill="#050505"/>
<path d="M451.221 102.685C451.168 103.668 451.501 104.632 452.148 105.373C452.795 106.115 453.705 106.574 454.686 106.655C455.667 106.735 456.64 106.43 457.399 105.804C458.158 105.178 458.643 104.28 458.751 103.302C458.8 102.806 458.749 102.306 458.6 101.83C458.452 101.354 458.209 100.913 457.886 100.533C457.564 100.153 457.168 99.8418 456.723 99.6179C456.278 99.394 455.792 99.2619 455.295 99.2297C452.603 99.1417 451.392 100.606 451.221 102.685Z" fill="#E98862"/>
<path d="M452.881 90.7034L455.662 91.722C455.662 91.722 454.676 105.617 453.898 109.416C453.119 113.215 450.942 115.688 448.474 115.902C444.684 116.227 441.938 116.253 439.158 115.259C436.023 114.139 436.462 105.727 436.462 105.727C436.462 105.727 446.55 106.82 449.341 105.48C452.132 104.139 452.881 90.7034 452.881 90.7034Z" fill="#050505"/>
<path d="M446.587 101.396C447.079 101.396 447.477 100.997 447.477 100.505C447.477 100.013 447.079 99.6146 446.587 99.6146C446.095 99.6146 445.696 100.013 445.696 100.505C445.696 100.997 446.095 101.396 446.587 101.396Z" fill="#050505"/>
<path d="M439.559 100.819C440.05 100.819 440.449 100.421 440.449 99.9288C440.449 99.4369 440.05 99.0382 439.559 99.0382C439.067 99.0382 438.668 99.4369 438.668 99.9288C438.668 100.421 439.067 100.819 439.559 100.819Z" fill="#050505"/>
<path d="M438.014 98.0301C437.903 98.0308 437.796 97.9875 437.717 97.9095C437.638 97.8316 437.594 97.7254 437.593 97.6144C437.592 97.5034 437.635 97.3967 437.713 97.3177C437.791 97.2387 437.897 97.1939 438.008 97.1931L440.369 97.1632H440.375C440.486 97.1625 440.593 97.206 440.672 97.284C440.751 97.362 440.795 97.4682 440.796 97.5792C440.797 97.6902 440.753 97.7969 440.675 97.8758C440.597 97.9548 440.491 97.9995 440.38 98.0002L438.02 98.0301H438.014Z" fill="#050505"/>
<path d="M448.51 98.8901C448.477 98.8902 448.444 98.8864 448.411 98.8788L446.084 98.3187C445.976 98.2928 445.883 98.225 445.825 98.1304C445.767 98.0357 445.749 97.9219 445.775 97.814C445.801 97.706 445.869 97.6128 445.964 97.5549C446.058 97.4969 446.172 97.4789 446.28 97.5049L448.607 98.0649C448.707 98.0891 448.794 98.1488 448.852 98.2328C448.91 98.3167 448.936 98.4192 448.924 98.5207C448.912 98.6223 448.863 98.7159 448.787 98.784C448.71 98.852 448.612 98.8898 448.51 98.8901Z" fill="#050505"/>
<g opacity="0.15">
<path d="M442.632 105.447C442.706 105.447 442.777 105.421 442.833 105.373C442.888 105.325 442.925 105.258 442.936 105.185C442.947 105.113 442.931 105.038 442.892 104.976C442.853 104.914 442.793 104.867 442.722 104.846L440.91 104.289L442.177 101.469C442.208 101.395 442.208 101.312 442.179 101.238C442.149 101.164 442.092 101.104 442.019 101.072C441.946 101.039 441.863 101.036 441.788 101.063C441.713 101.09 441.652 101.146 441.617 101.218L440.207 104.359C440.189 104.398 440.18 104.441 440.18 104.485C440.18 104.529 440.189 104.572 440.207 104.611C440.225 104.651 440.251 104.686 440.284 104.715C440.317 104.744 440.355 104.765 440.397 104.778L442.54 105.436C442.57 105.445 442.601 105.448 442.632 105.447Z" fill="#050505"/>
</g>
<path d="M446.174 107.522C446.174 107.522 442.885 107.869 440.58 107.063C440.58 107.063 440.598 109.23 443.201 109.443C445.804 109.656 446.174 107.522 446.174 107.522Z" fill="white"/>
<path d="M487.822 158.437C484.489 161.856 480.735 164.837 476.65 167.309L473.84 158.916C473.425 160.845 473.203 162.81 473.175 164.782C473.174 166.235 473.251 167.686 473.407 169.131C466.268 172.817 458.425 174.938 450.401 175.355C442.378 175.771 434.358 174.472 426.876 171.545C427.034 169.785 427.146 167.839 427.191 165.684L425.206 170.862C421.03 169.069 417.088 166.771 413.469 164.021L425.285 133.209C426.075 126.429 429.324 121.568 438.444 121.173C438.833 121.156 439.453 121.145 440.254 121.133C440.412 124.512 461.359 124.501 461.799 121.054C467.716 121.06 472.566 122.871 475.375 125.685C476.513 126.804 477.423 128.133 478.054 129.599L478.15 129.565L487.822 158.437Z" fill="#8DDBE0"/>
<path d="M440.254 121.132C440.414 124.516 442.252 129.489 447.928 129.864C455.491 130.362 461.357 124.502 461.802 121.053H461.784C454.335 121.053 444.595 121.065 440.254 121.132Z" fill="#E98862"/>
<path d="M452.598 285.515C452.693 276.372 449.079 270.706 444.179 267.595C439.345 264.526 424.186 261.854 418.438 272.997C414.687 280.268 416.168 282.867 415.106 294.513C414.044 306.159 409.962 307.381 405.822 321.496C402.576 332.569 420.762 338.447 436.513 337.939C452.265 337.431 462.247 333.945 463.161 323.927C464.472 309.551 452.413 303.432 452.598 285.515Z" fill="#050505"/>
<path d="M443.214 310.793C443.214 310.793 438.483 308.229 439.66 295.291L429.854 293.38C429.854 293.38 430.851 304.999 425.85 308.638L443.214 310.793Z" fill="#E98862"/>
<g opacity="0.15">
<path d="M427.886 306.229L436.104 300.061L429.695 299.936C429.489 302.128 428.875 304.263 427.886 306.229Z" fill="#050505"/>
</g>
<path d="M445.285 290.322C444.569 294.244 442.391 297.944 438.915 299.181C435.124 300.645 431.033 301.16 426.997 300.68C416.251 299.7 418.603 275.267 423.752 270.562C428.901 265.857 443.858 269.004 445.608 276.965C446.51 281.085 445.964 286.589 445.285 290.322Z" fill="#E98862"/>
<path d="M429.935 287.155C430.426 287.155 430.825 286.756 430.825 286.264C430.825 285.773 430.426 285.374 429.935 285.374C429.443 285.374 429.044 285.773 429.044 286.264C429.044 286.756 429.443 287.155 429.935 287.155Z" fill="#050505"/>
<path d="M422.911 286.514C423.403 286.514 423.802 286.115 423.802 285.623C423.802 285.131 423.403 284.732 422.911 284.732C422.419 284.732 422.021 285.131 422.021 285.623C422.021 286.115 422.419 286.514 422.911 286.514Z" fill="#050505"/>
<path d="M421.388 283.711C421.277 283.711 421.171 283.667 421.092 283.588C421.014 283.51 420.97 283.403 420.97 283.292C420.97 283.181 421.014 283.075 421.092 282.996C421.171 282.918 421.277 282.874 421.388 282.874L423.749 282.865C423.858 282.869 423.96 282.915 424.035 282.993C424.111 283.071 424.153 283.176 424.153 283.284C424.153 283.392 424.111 283.497 424.035 283.575C423.96 283.653 423.858 283.699 423.749 283.703L421.388 283.711Z" fill="#050505"/>
<path d="M431.876 284.667C431.841 284.667 431.807 284.663 431.773 284.655L429.451 284.074C429.344 284.047 429.251 283.978 429.194 283.883C429.137 283.787 429.12 283.673 429.147 283.566C429.174 283.458 429.243 283.365 429.339 283.308C429.434 283.251 429.548 283.235 429.656 283.262L431.978 283.843C432.077 283.867 432.163 283.927 432.221 284.012C432.279 284.096 432.304 284.198 432.292 284.3C432.279 284.401 432.23 284.495 432.154 284.562C432.077 284.63 431.978 284.667 431.876 284.667Z" fill="#050505"/>
<path d="M429.458 293.277C429.458 293.277 426.166 293.594 423.868 292.77C423.868 292.77 423.868 294.936 426.467 295.173C429.066 295.41 429.458 293.277 429.458 293.277Z" fill="white"/>
<path d="M438.141 280.078C438.374 297.82 440.084 304.712 440.084 304.712C440.084 304.712 448.485 294.56 449.752 283.809C450.941 273.729 443.561 267.704 438.548 266.535C419.498 262.091 418.176 275.986 418.176 275.986C419.407 280.727 440.203 283.668 440.203 283.668" fill="#050505"/>
<path d="M434.4 290.145C434.339 290.648 434.378 291.157 434.517 291.644C434.656 292.131 434.892 292.585 435.21 292.979C435.527 293.373 435.921 293.699 436.367 293.938C436.814 294.177 437.303 294.324 437.808 294.37C438.312 294.416 438.82 294.36 439.302 294.206C439.784 294.051 440.231 293.802 440.614 293.472C440.998 293.142 441.312 292.738 441.537 292.285C441.762 291.831 441.893 291.337 441.923 290.832C441.977 290.336 441.93 289.835 441.786 289.358C441.642 288.881 441.403 288.437 441.085 288.054C440.766 287.671 440.373 287.356 439.93 287.128C439.487 286.9 439.002 286.764 438.505 286.727C435.813 286.614 434.589 288.068 434.4 290.145Z" fill="#E98862"/>
<g opacity="0.15">
<path d="M425.94 291.17C426.013 291.169 426.084 291.143 426.14 291.095C426.195 291.048 426.232 290.982 426.243 290.909C426.254 290.837 426.239 290.763 426.201 290.701C426.162 290.638 426.103 290.592 426.033 290.569L424.228 289.996L425.522 287.185C425.539 287.149 425.549 287.109 425.551 287.068C425.552 287.028 425.546 286.987 425.532 286.949C425.518 286.911 425.497 286.876 425.469 286.846C425.442 286.817 425.409 286.792 425.372 286.776C425.335 286.759 425.295 286.749 425.255 286.748C425.214 286.746 425.174 286.753 425.136 286.767C425.098 286.781 425.063 286.803 425.033 286.83C425.004 286.858 424.98 286.891 424.963 286.928L423.524 290.055C423.506 290.095 423.496 290.138 423.496 290.181C423.496 290.225 423.505 290.268 423.522 290.308C423.54 290.348 423.566 290.383 423.598 290.412C423.63 290.442 423.669 290.464 423.71 290.477L425.849 291.154C425.878 291.163 425.909 291.169 425.94 291.17Z" fill="#050505"/>
</g>
<path d="M457.016 345.48C456.601 347.41 456.378 349.377 456.35 351.351C456.341 354.739 456.771 358.113 457.631 361.39C450.154 364.996 441.975 366.911 433.674 366.999C425.374 367.087 417.156 365.345 409.605 361.898C410.057 358.702 410.312 355.481 410.366 352.253L407.129 360.691C403.034 358.566 399.215 355.946 395.759 352.891L408.46 319.778C409.244 312.998 412.493 308.137 421.619 307.742C422.008 307.725 422.628 307.714 423.429 307.697C423.587 311.081 444.534 311.07 444.974 307.618C450.891 307.623 455.741 309.44 458.55 312.248C459.687 313.37 460.597 314.701 461.229 316.168L461.325 316.134L472.859 350.573C469.495 353.927 465.72 356.842 461.624 359.247L457.016 345.48Z" fill="#367CFF"/>
<path d="M423.428 307.7C423.588 311.084 425.427 316.056 431.102 316.432C438.665 316.93 444.531 311.07 444.976 307.62H444.958C437.509 307.62 427.769 307.632 423.428 307.7Z" fill="#E98862"/>
<path d="M304.164 247.427C296.587 253.936 287.42 258.319 277.597 260.129C267.774 261.939 257.647 261.112 248.248 257.731C248.195 255.878 247.974 254.034 247.588 252.221L246.031 256.874C241.805 255.147 237.806 252.908 234.125 250.207L243.278 222.875L243.375 222.904C244.007 221.438 244.917 220.109 246.054 218.989C248.863 216.175 253.712 214.364 259.629 214.359C260.069 217.805 281.017 217.822 281.175 214.438C281.976 214.449 282.596 214.46 282.985 214.483C292.105 214.872 295.353 219.739 296.143 226.519L304.164 247.427Z" fill="#0CBC8B"/>
<path d="M281.174 214.436C281.014 217.82 279.175 222.792 273.5 223.167C265.937 223.665 260.071 217.805 259.625 214.356H259.644C267.092 214.358 276.832 214.37 281.174 214.436Z" fill="#E98862"/>
<path d="M45.9141 306.615C45.9141 306.615 50.6692 304.094 49.6072 291.147L59.4311 289.325C59.4311 289.325 58.3273 300.934 63.2974 304.619L45.9141 306.615Z" fill="#E98862"/>
<g opacity="0.15">
<path d="M61.2843 302.192L53.123 295.949L59.533 295.882C59.7185 298.076 60.3125 300.216 61.2843 302.192Z" fill="#050505"/>
</g>
<path d="M44.0333 286.126C44.7135 290.054 46.8573 293.774 50.3225 295.043C54.4358 296.549 57.4854 296.651 62.2231 296.651C68.6951 296.651 68.4836 289.901 68.663 283.1C68.8451 276.271 68.3026 268.943 65.7442 266.566C60.6388 261.816 45.6537 264.824 43.8308 272.77C42.8906 276.877 43.3863 282.387 44.0333 286.126Z" fill="#E98862"/>
<path d="M73.1518 263.738C73.1518 260.49 69.1096 255.168 58.3257 262.506L58.3145 262.513C55.513 262.435 52.7141 262.741 49.9959 263.423C45.0642 264.898 38.8798 269.032 40.4664 279.057C42.238 290.244 46.8205 293.231 49.1301 294.603C49.719 294.953 49.8634 294.668 50.0653 294.015C50.7066 291.599 51.1653 289.139 51.4375 286.655C51.8403 284.237 52.023 281.788 51.9835 279.337C51.9835 278.251 51.9897 274.293 57.3776 274.25C60.4081 274.225 59.2755 274.346 62.5101 274.346C62.9709 274.346 63.3787 274.324 63.7538 274.289H63.7577C74.9217 274.293 73.1518 266.986 73.1518 263.738Z" fill="#050505"/>
<path d="M59.4169 283.099C59.9088 283.099 60.3075 282.701 60.3075 282.209C60.3075 281.717 59.9088 281.318 59.4169 281.318C58.9251 281.318 58.5264 281.717 58.5264 282.209C58.5264 282.701 58.9251 283.099 59.4169 283.099Z" fill="#050505"/>
<path d="M66.4462 282.523C66.9381 282.523 67.3368 282.124 67.3368 281.633C67.3368 281.141 66.9381 280.742 66.4462 280.742C65.9544 280.742 65.5557 281.141 65.5557 281.633C65.5557 282.124 65.9544 282.523 66.4462 282.523Z" fill="#050505"/>
<path d="M67.9898 279.734H67.9853L65.6249 279.704C65.514 279.703 65.4078 279.659 65.3298 279.58C65.2518 279.501 65.2083 279.394 65.209 279.283C65.2097 279.172 65.2544 279.066 65.3334 278.988C65.4123 278.91 65.519 278.866 65.63 278.867H65.6351L67.9949 278.896C68.1033 278.901 68.2057 278.947 68.2806 279.026C68.3555 279.105 68.3969 279.209 68.3963 279.318C68.3956 279.426 68.3529 279.53 68.2771 279.608C68.2013 279.685 68.0983 279.731 67.9898 279.734Z" fill="#050505"/>
<path d="M57.4934 280.594C57.3911 280.594 57.2925 280.556 57.2162 280.488C57.1399 280.42 57.0911 280.326 57.0791 280.225C57.0671 280.123 57.0926 280.021 57.151 279.937C57.2094 279.853 57.2964 279.793 57.3958 279.769L59.7229 279.209C59.7764 279.196 59.8318 279.194 59.8861 279.202C59.9404 279.211 59.9925 279.23 60.0394 279.258C60.0863 279.287 60.1271 279.325 60.1595 279.369C60.1918 279.414 60.2151 279.464 60.228 279.517C60.2409 279.571 60.2431 279.626 60.2346 279.681C60.226 279.735 60.2069 279.787 60.1782 279.834C60.1495 279.881 60.1119 279.922 60.0674 279.954C60.023 279.986 59.9726 280.01 59.9192 280.023L57.5921 280.583C57.5597 280.59 57.5266 280.594 57.4934 280.594Z" fill="#050505"/>
<path d="M54.782 284.389C54.8373 284.892 54.7914 285.4 54.647 285.884C54.5026 286.368 54.2626 286.818 53.9411 287.208C53.6197 287.597 53.2235 287.919 52.7757 288.153C52.328 288.387 51.8379 288.528 51.3345 288.57C50.831 288.611 50.3244 288.551 49.8446 288.393C49.3647 288.235 48.9214 287.982 48.5409 287.65C48.1603 287.318 47.8502 286.913 47.6289 286.459C47.4076 286.005 47.2796 285.511 47.2524 285.006C47.2033 284.51 47.2546 284.01 47.403 283.534C47.5515 283.058 47.7942 282.617 48.1167 282.237C48.4392 281.857 48.8349 281.545 49.2802 281.322C49.7255 281.098 50.2113 280.965 50.7087 280.933C53.4007 280.846 54.6111 282.31 54.782 284.389Z" fill="#E98862"/>
<g opacity="0.15">
<path d="M63.3719 287.151C63.2982 287.151 63.2271 287.125 63.1713 287.077C63.1155 287.029 63.0788 286.962 63.0679 286.889C63.0569 286.816 63.0725 286.742 63.1117 286.68C63.151 286.618 63.2112 286.571 63.2816 286.55L65.0938 285.994L63.8259 283.174C63.7925 283.099 63.79 283.015 63.8189 282.938C63.8479 282.862 63.906 282.8 63.9804 282.767C64.0549 282.734 64.1395 282.731 64.2158 282.76C64.292 282.789 64.3537 282.847 64.3871 282.922L65.7971 286.062C65.815 286.102 65.8243 286.145 65.8243 286.188C65.8242 286.232 65.8149 286.275 65.7969 286.315C65.7789 286.354 65.7527 286.39 65.72 286.419C65.6872 286.447 65.6487 286.469 65.607 286.482L63.4638 287.14C63.4339 287.149 63.4029 287.152 63.3719 287.151Z" fill="#050505"/>
</g>
<path d="M59.8291 289.223C59.8291 289.223 63.1184 289.57 65.4235 288.765C65.4235 288.765 65.4055 290.931 62.8026 291.144C60.1997 291.358 59.8291 289.223 59.8291 289.223Z" fill="white"/>
<path d="M79.5698 350.561L78.5377 347.876C78.5602 348.959 78.5997 349.985 78.6561 350.961C71.3297 354.098 63.4228 355.65 55.4542 355.516C47.4856 355.382 39.6354 353.564 32.4187 350.183C32.5027 349.162 32.5484 348.096 32.5484 346.974C32.5199 345 32.2989 343.033 31.8885 341.102L29.3674 348.632C25.2428 346.377 21.4171 343.614 17.9795 340.408L27.5738 311.757L27.6697 311.791C28.3036 310.325 29.2131 308.994 30.3488 307.871C33.1575 305.062 38.008 303.252 43.9239 303.246C44.3695 306.692 65.3117 306.703 65.469 303.325C66.2699 303.336 66.8903 303.347 67.2795 303.364C76.4052 303.759 79.6539 308.621 80.4378 315.4L91.216 343.499C87.6334 346.315 83.7228 348.686 79.5698 350.561Z" fill="#262626"/>
<path d="M65.4724 303.323C65.3127 306.707 63.4741 311.68 57.7984 312.055C50.2351 312.553 44.3688 306.693 43.9238 303.244H43.9424C51.3913 303.244 61.1312 303.255 65.4724 303.323Z" fill="#E98862"/>
</svg>
