<svg width="24" height="24" viewBox="0 0 24 24" fill="none" xmlns="http://www.w3.org/2000/svg">
<path d="M12.007 2.16326C15.2152 2.16326 15.5951 2.17732 16.8568 2.23357C18.0293 2.28513 18.6625 2.48201 19.0846 2.64607C19.6428 2.86169 20.0461 3.12419 20.4636 3.54138C20.8857 3.96326 21.1436 4.36169 21.3594 4.91951C21.5235 5.34138 21.7205 5.97888 21.7721 7.14607C21.8284 8.41169 21.8425 8.79138 21.8425 11.9929C21.8425 15.1992 21.8284 15.5789 21.7721 16.8398C21.7205 18.0117 21.5235 18.6445 21.3594 19.0664C21.1436 19.6242 20.881 20.0273 20.4636 20.4445C20.0414 20.8664 19.6428 21.1242 19.0846 21.3398C18.6625 21.5039 18.0246 21.7008 16.8568 21.7523C15.5904 21.8086 15.2105 21.8226 12.007 21.8226C8.79891 21.8226 8.419 21.8086 7.15732 21.7523C5.98476 21.7008 5.35157 21.5039 4.92945 21.3398C4.37131 21.1242 3.96795 20.8617 3.55052 20.4445C3.1284 20.0226 2.87043 19.6242 2.65468 19.0664C2.49052 18.6445 2.29353 18.007 2.24194 16.8398C2.18566 15.5742 2.17159 15.1945 2.17159 11.9929C2.17159 8.78669 2.18566 8.40701 2.24194 7.14607C2.29353 5.97419 2.49052 5.34138 2.65468 4.91951C2.87043 4.36169 3.13309 3.95857 3.55052 3.54138C3.97264 3.11951 4.37131 2.86169 4.92945 2.64607C5.35157 2.48201 5.98945 2.28513 7.15732 2.23357C8.419 2.17732 8.79891 2.16326 12.007 2.16326ZM12.007 0.00231934C8.74731 0.00231934 8.33926 0.0163818 7.05882 0.0726318C5.78308 0.128882 4.906 0.335132 4.14618 0.630444C3.35353 0.939819 2.68282 1.34763 2.01681 2.01794C1.3461 2.68357 0.93805 3.35388 0.628493 4.14138C0.333008 4.90544 0.126637 5.77732 0.0703537 7.05232C0.0140707 8.33669 0 8.74451 0 12.0023C0 15.2601 0.0140707 15.6679 0.0703537 16.9476C0.126637 18.2226 0.333008 19.0992 0.628493 19.8586C0.93805 20.6508 1.3461 21.3211 2.01681 21.9867C2.68282 22.6523 3.35353 23.0648 4.14149 23.3695C4.906 23.6648 5.77839 23.8711 7.05413 23.9273C8.33457 23.9836 8.74262 23.9976 12.0023 23.9976C15.2621 23.9976 15.6701 23.9836 16.9506 23.9273C18.2263 23.8711 19.1034 23.6648 19.8632 23.3695C20.6512 23.0648 21.3219 22.6523 21.9879 21.9867C22.6539 21.3211 23.0666 20.6508 23.3715 19.8633C23.667 19.0992 23.8734 18.2273 23.9296 16.9523C23.9859 15.6726 24 15.2648 24 12.007C24 8.7492 23.9859 8.34138 23.9296 7.06169C23.8734 5.78669 23.667 4.91013 23.3715 4.15076C23.076 3.35388 22.668 2.68357 21.9973 2.01794C21.3313 1.35232 20.6605 0.939819 19.8726 0.635132C19.1081 0.339819 18.2357 0.133569 16.9599 0.0773193C15.6748 0.0163818 15.2668 0.00231934 12.007 0.00231934Z" fill="#2A3E5B"/>
<path d="M12 5.83679C8.59688 5.83679 5.83594 8.59719 5.83594 11.9997C5.83594 15.4021 8.59688 18.1625 12 18.1625C15.4031 18.1625 18.1641 15.4021 18.1641 11.9997C18.1641 8.59719 15.4031 5.83679 12 5.83679ZM12 15.9973C9.79219 15.9973 8.00156 14.207 8.00156 11.9997C8.00156 9.79227 9.79219 8.00199 12 8.00199C14.2078 8.00199 15.9984 9.79227 15.9984 11.9997C15.9984 14.207 14.2078 15.9973 12 15.9973Z" fill="#2A3E5B"/>
<path d="M19.8469 5.59345C19.8469 6.39017 19.2 7.03223 18.4078 7.03223C17.6109 7.03223 16.9688 6.38548 16.9688 5.59345C16.9688 4.79673 17.6156 4.15466 18.4078 4.15466C19.2 4.15466 19.8469 4.80141 19.8469 5.59345Z" fill="#2A3E5B"/>
</svg>
