<svg width="24" height="14" viewBox="0 0 24 14" fill="none" xmlns="http://www.w3.org/2000/svg">
<path d="M13.1612 7.00006C13.1612 10.7708 10.2149 13.8275 6.58072 13.8275C2.9465 13.8275 0 10.7701 0 7.00006C0 3.23004 2.94628 0.172363 6.58072 0.172363C10.2152 0.172363 13.1612 3.22935 13.1612 7.00006Z" fill="#2A3E5B"/>
<path d="M20.7135 7.00002C20.7135 10.5493 19.2404 13.4278 17.4232 13.4278C15.606 13.4278 14.1328 10.5493 14.1328 7.00002C14.1328 3.4507 15.6057 0.572266 17.423 0.572266C19.2402 0.572266 20.7133 3.44978 20.7133 7.00002" fill="#2A3E5B"/>
<path d="M23.9998 6.99995C23.9998 10.1793 23.4818 12.7582 22.8426 12.7582C22.2033 12.7582 21.6855 10.18 21.6855 6.99995C21.6855 3.81994 22.2036 1.2417 22.8426 1.2417C23.4815 1.2417 23.9998 3.81971 23.9998 6.99995Z" fill="#2A3E5B"/>
</svg>
