<svg width="26" height="22" viewBox="0 0 26 22" fill="none" xmlns="http://www.w3.org/2000/svg">
<path d="M16.0002 9C15.0042 9 14.2002 8.33 14.2002 7.5V2.5C14.2002 1.67 15.0042 1 16.0002 1C16.9962 1 17.8002 1.67 17.8002 2.5V7.5C17.8002 8.33 16.9962 9 16.0002 9Z" stroke="#2A3E5B" stroke-width="2" stroke-linecap="round" stroke-linejoin="round"/>
<path d="M23.2004 9H21.4004V7.5C21.4004 6.67 22.2044 6 23.2004 6C24.1964 6 25.0004 6.67 25.0004 7.5C25.0004 8.33 24.1964 9 23.2004 9Z" stroke="#2A3E5B" stroke-width="2" stroke-linecap="round" stroke-linejoin="round"/>
<path d="M10.0002 13C10.9962 13 11.8002 13.67 11.8002 14.5V19.5C11.8002 20.33 10.9962 21 10.0002 21C9.0042 21 8.2002 20.33 8.2002 19.5V14.5C8.2002 13.67 9.0042 13 10.0002 13Z" stroke="#2A3E5B" stroke-width="2" stroke-linecap="round" stroke-linejoin="round"/>
<path d="M2.8 13H4.6V14.5C4.6 15.33 3.796 16 2.8 16C1.804 16 1 15.33 1 14.5C1 13.67 1.804 13 2.8 13Z" stroke="#2A3E5B" stroke-width="2" stroke-linecap="round" stroke-linejoin="round"/>
<path d="M15.4004 13.5C15.4004 12.67 16.2044 12 17.2004 12H23.2004C24.1964 12 25.0004 12.67 25.0004 13.5C25.0004 14.33 24.1964 15 23.2004 15H17.2004C16.2044 15 15.4004 14.33 15.4004 13.5Z" stroke="#2A3E5B" stroke-width="2" stroke-linecap="round" stroke-linejoin="round"/>
<path d="M17.2004 18H15.4004V19.5C15.4004 20.33 16.2044 21 17.2004 21C18.1964 21 19.0004 20.33 19.0004 19.5C19.0004 18.67 18.1964 18 17.2004 18Z" stroke="#2A3E5B" stroke-width="2" stroke-linecap="round" stroke-linejoin="round"/>
<path d="M10.6 8.5C10.6 7.67 9.796 7 8.8 7H2.8C1.804 7 1 7.67 1 8.5C1 9.33 1.804 10 2.8 10H8.8C9.796 10 10.6 9.33 10.6 8.5Z" stroke="#2A3E5B" stroke-width="2" stroke-linecap="round" stroke-linejoin="round"/>
<path d="M8.8 4H10.6V2.5C10.6 1.67 9.796 1 8.8 1C7.804 1 7 1.67 7 2.5C7 3.33 7.804 4 8.8 4Z" stroke="#2A3E5B" stroke-width="2" stroke-linecap="round" stroke-linejoin="round"/>
</svg>
