<svg width="25" height="25" viewBox="0 0 25 25" fill="none" xmlns="http://www.w3.org/2000/svg">
<path d="M14.1424 11.0277C11.2072 10.1093 8.00508 10.3902 5.29404 11.8039L1.61222 13.7238C1.16374 13.9577 0.879907 14.4021 0.867188 14.8897V18.6703C0.9863 18.5701 1.11791 18.4817 1.26053 18.4073M14.1424 11.0277L14.2566 10.6945M14.1424 11.0277L22.8094 13.7395C23.589 13.9834 24.1205 14.6728 24.1331 15.4559V19.0318C23.8373 18.7355 23.4644 18.5055 23.0378 18.372L12.0905 14.9468C10.4179 14.4235 8.59331 14.5836 7.04847 15.3891L1.26053 18.4073M1.26053 18.4073L1.42568 18.6964" stroke="white" stroke-width="0.673421"/>
<path d="M0.5 19.6925L0.5 14.3934C0.513833 15.3274 1.1472 16.1499 2.07651 16.4406L10.7436 19.1523C13.775 20.1008 17.082 19.8107 19.8819 18.3507L23.5637 16.4307C24.1287 16.1362 24.4857 15.5758 24.5 14.9612V20.2602C24.4857 20.8748 24.1287 21.4352 23.5637 21.7298L19.8819 23.6497C17.082 25.1097 13.775 25.3998 10.7436 24.4514L2.07651 21.7396C1.1472 21.4489 0.513833 20.6264 0.5 19.6925Z" fill="white"/>
<path d="M14.1424 1.53124C11.2072 0.612869 8.00509 0.893772 5.29404 2.30745L1.61221 4.22738C1.16374 4.46123 0.879907 4.90561 0.867188 5.39327V9.1738C0.9863 9.07366 1.11791 8.98521 1.26053 8.91082L7.04847 5.89267C8.59331 5.0871 10.4179 4.92702 12.0905 5.45036L23.0378 8.87553C23.4644 9.009 23.8373 9.23902 24.1331 9.53538V5.95944C24.1205 5.1763 23.589 4.4869 22.8094 4.24295L14.1424 1.53124ZM14.1424 1.53124L14.2566 1.19802" stroke="white" stroke-width="0.673421"/>
<path d="M0.5 10.1962L0.5 4.89722C0.513833 5.83118 1.1472 6.65363 2.07651 6.94443L10.7436 9.65612C13.775 10.6046 17.082 10.3145 19.8819 8.85447L23.5637 6.93452C24.1287 6.63998 24.4857 6.07952 24.5 5.46497V10.764C24.4857 11.3785 24.1287 11.939 23.5637 12.2335L19.8819 14.1534C17.082 15.6135 13.775 15.9036 10.7436 14.9551L2.07651 12.2434C1.1472 11.9527 0.513833 11.1302 0.5 10.1962Z" fill="white"/>
</svg>
