<svg width="24" height="25" viewBox="0 0 24 25" fill="none" xmlns="http://www.w3.org/2000/svg">
<path d="M13.6424 11.0277C10.7072 10.1093 7.50508 10.3902 4.79404 11.8039L1.11222 13.7238C0.663739 13.9577 0.379907 14.4021 0.367188 14.8897V18.6703C0.4863 18.5701 0.61791 18.4817 0.760526 18.4073M13.6424 11.0277L13.7566 10.6945M13.6424 11.0277L22.3094 13.7395C23.089 13.9834 23.6205 14.6728 23.6331 15.4559V19.0318C23.3373 18.7355 22.9644 18.5055 22.5378 18.372L11.5905 14.9468C9.91791 14.4235 8.09331 14.5836 6.54847 15.3891L0.760526 18.4073M0.760526 18.4073L0.925682 18.6964" stroke="#050505" stroke-width="0.673421"/>
<path d="M1.94784e-07 19.6925L0 14.3934C0.0138327 15.3274 0.647202 16.1499 1.57651 16.4406L10.2436 19.1523C13.275 20.1008 16.582 19.8107 19.3819 18.3507L23.0637 16.4307C23.6287 16.1362 23.9857 15.5758 24 14.9612V20.2602C23.9857 20.8748 23.6287 21.4352 23.0637 21.7298L19.3819 23.6497C16.582 25.1097 13.275 25.3998 10.2436 24.4514L1.57651 21.7396C0.647202 21.4489 0.0138327 20.6264 1.94784e-07 19.6925Z" fill="#050505"/>
<path d="M13.6424 1.53124C10.7072 0.612869 7.50509 0.893772 4.79404 2.30745L1.11221 4.22738C0.663744 4.46123 0.379907 4.90561 0.367188 5.39327V9.1738C0.4863 9.07366 0.617914 8.98521 0.760526 8.91082L6.54847 5.89267C8.09331 5.0871 9.91791 4.92702 11.5905 5.45036L22.5378 8.87553C22.9644 9.009 23.3373 9.23902 23.6331 9.53538V5.95944C23.6205 5.1763 23.089 4.4869 22.3094 4.24295L13.6424 1.53124ZM13.6424 1.53124L13.7566 1.19802" stroke="#050505" stroke-width="0.673421"/>
<path d="M1.94784e-07 10.1962L0 4.89722C0.0138327 5.83118 0.647202 6.65363 1.57651 6.94443L10.2436 9.65612C13.275 10.6046 16.582 10.3145 19.3819 8.85447L23.0637 6.93452C23.6287 6.63998 23.9857 6.07952 24 5.46497V10.764C23.9857 11.3785 23.6287 11.939 23.0637 12.2335L19.3819 14.1534C16.582 15.6135 13.275 15.9036 10.2436 14.9551L1.57651 12.2434C0.647202 11.9527 0.0138327 11.1302 1.94784e-07 10.1962Z" fill="#050505"/>
</svg>
