<svg width="96" height="97" viewBox="0 0 96 97" fill="none" xmlns="http://www.w3.org/2000/svg">
<path d="M54.5695 41.1109C42.8286 37.4373 30.0203 38.5609 19.1762 44.2158L4.44887 51.8954C2.65495 52.8308 1.51963 54.6083 1.46875 56.5589V71.6812C1.9452 71.2805 2.47164 70.9267 3.0421 70.6293M54.5695 41.1109L55.0264 39.7779M54.5695 41.1109L89.2376 51.9578C92.3559 52.9334 94.4819 55.691 94.5326 58.8236V73.1274C93.3491 71.9419 91.8577 71.0219 90.1514 70.488L46.3621 56.7873C39.6716 54.6939 32.3732 55.3342 26.1939 58.5566L3.0421 70.6293M3.0421 70.6293L3.70273 71.7856" stroke="white" stroke-width="0.673421"/>
<path d="M7.79138e-07 75.7698L0 54.5737C0.0553307 58.3096 2.58881 61.5996 6.30605 62.7626L40.9743 73.6093C53.1 77.4031 66.3281 76.2428 77.5278 70.4027L92.255 62.7229C94.5147 61.5448 95.9428 59.3031 96 56.8447V78.0408C95.9428 80.499 94.5147 82.7409 92.255 83.919L77.5278 91.5986C66.3281 97.4389 53.1 98.5992 40.9743 94.8054L6.30605 83.9585C2.58881 82.7955 0.0553307 79.5057 7.79138e-07 75.7698Z" fill="white"/>
<path d="M54.5695 3.12496C42.8286 -0.548522 30.0203 0.57509 19.1762 6.22982L4.44885 13.9095C2.65497 14.8449 1.51963 16.6224 1.46875 18.5731V33.6952C1.9452 33.2946 2.47166 32.9408 3.0421 32.6433L26.1939 20.5707C32.3732 17.3484 39.6716 16.7081 46.3621 18.8014L90.1514 32.5021C91.8577 33.036 93.3491 33.9561 94.5326 35.1415V20.8377C94.4819 17.7052 92.3559 14.9476 89.2376 13.9718L54.5695 3.12496ZM54.5695 3.12496L55.0264 1.79207" stroke="white" stroke-width="0.673421"/>
<path d="M7.79138e-07 37.785L0 16.5889C0.0553307 20.3247 2.58881 23.6145 6.30605 24.7777L40.9743 35.6245C53.1 39.4183 66.3281 38.2579 77.5278 32.4179L92.255 24.7381C94.5147 23.5599 95.9428 21.3181 96 18.8599V40.056C95.9428 42.5142 94.5147 44.756 92.255 45.9342L77.5278 53.6138C66.3281 59.454 53.1 60.6144 40.9743 56.8204L6.30605 45.9736C2.58881 44.8106 0.0553307 41.5208 7.79138e-07 37.785Z" fill="white"/>
</svg>
