<svg width="640" height="278" viewBox="0 0 640 278" fill="none" xmlns="http://www.w3.org/2000/svg">
<path d="M126.622 22.0396C139.996 30.7887 150.491 40.5322 159.999 51.6971C160.483 52.2641 160.968 52.8312 161.466 53.4154C184.957 81.2859 204.906 120.504 204.254 153.824C205.144 153.383 206.034 152.943 206.951 152.488C243.183 134.56 243.183 134.56 257.587 128.292C258.535 127.88 259.482 127.467 260.458 127.041C282.16 117.67 304.469 110.014 329.076 106.165C329.949 106.027 330.822 105.889 331.722 105.746C391.836 96.6636 454.5 111.607 504.633 136.336C510.661 139.394 516.351 142.708 521.983 146.165C523.022 146.781 524.06 147.398 525.13 148.033C541.957 158.122 558.341 169.46 571.726 182.145C574.29 184.565 576.96 186.903 579.642 189.25C603.212 210.479 626.79 236.962 637.656 263.505C638.017 264.37 638.017 264.37 638.385 265.252C640.147 269.869 639.997 272.965 639.997 278.079C428.798 278.079 217.599 278.079 0 278.079C0 189.05 0 100.02 0 8.29303C44.6227 -6.58121 89.5247 -1.11798 126.622 22.0396Z" fill="#643366"/>
</svg>
