<svg width="490" height="213" viewBox="0 0 490 213" fill="none" xmlns="http://www.w3.org/2000/svg">
<path d="M393.232 196.118C382.988 189.417 374.949 181.954 367.666 173.402C367.295 172.967 366.924 172.533 366.542 172.085C348.549 150.737 333.268 120.698 333.768 95.1753C333.086 95.513 332.404 95.8506 331.702 96.1985C303.949 109.931 303.949 109.931 292.916 114.732C292.191 115.048 291.465 115.364 290.717 115.69C274.095 122.869 257.006 128.733 238.158 131.681C237.489 131.787 236.821 131.892 236.132 132.001C190.086 138.959 142.087 127.513 103.687 108.571C99.0691 106.228 94.7114 103.69 90.397 101.042C89.6015 100.57 88.806 100.098 87.9864 99.6112C75.0975 91.8834 62.5477 83.1984 52.2957 73.4823C50.3313 71.6288 48.2862 69.8382 46.2318 68.0406C28.178 51.7796 10.118 31.494 1.79489 11.1636C1.51852 10.5009 1.51852 10.5009 1.2366 9.82478C-0.112549 6.28827 0.00219727 3.9169 0.00219727 3.05176e-05C161.774 3.05176e-05 323.546 3.05176e-05 490.22 3.05176e-05C490.22 68.1938 490.22 136.388 490.22 206.648C456.041 218.041 421.647 213.856 393.232 196.118Z" fill="#643366"/>
</svg>
