<svg width="64" height="171" viewBox="0 0 64 171" fill="none" xmlns="http://www.w3.org/2000/svg">
<path d="M63.2698 169.284C62.9085 169.29 62.5473 169.296 62.1751 169.302C61.9004 168.534 61.6257 167.767 61.3427 166.976C51.7941 140.438 39.9138 114.634 27.1044 88.8396C26.8081 88.2428 26.5119 87.646 26.2067 87.0312C23.23 81.0359 20.247 75.0425 17.2364 69.0561C9.87101 54.4034 3.07876 39.7434 -2.40289 24.653C-4.80184 18.0656 -7.63566 12.0834 -11.762 5.94355C-12.1469 5.16659 -12.5318 4.38963 -12.9284 3.58912C-11.5071 2.78145 -10.0858 1.97378 -8.62144 1.14163C-0.751459 8.73724 2.3637 17.5481 5.51829 26.6237C10.0708 39.6267 15.8898 52.1895 22.1938 64.7938C23.5604 67.5339 24.9103 70.2784 26.2616 73.0226C28.4179 77.3984 30.5804 81.7725 32.7499 86.1448C39.3176 99.3822 45.8731 112.622 52.1028 125.945C52.3852 126.548 52.6677 127.151 52.9587 127.772C59.3992 141.584 64.5912 154.515 63.2698 169.284Z" fill="#643366"/>
</svg>
