<svg width="480" height="230" viewBox="0 0 480 230" fill="none" xmlns="http://www.w3.org/2000/svg">
<path d="M452.9 0C454.748 0 456.595 0 458.499 0C474.232 19.2382 484.102 42.4994 477.975 65.21C471.789 84.4635 455.233 98.6995 433.189 108.907C380.452 132.358 309.242 135.349 249.673 139.401C248.178 139.502 248.178 139.502 246.654 139.606C236.503 140.295 226.351 140.976 216.196 141.636C197.055 142.882 177.945 144.197 158.88 145.997C158.124 146.068 157.369 146.139 156.59 146.212C135.904 148.177 115.493 150.728 95.5333 155.357C94.77 155.531 94.0067 155.706 93.2203 155.886C70.1611 161.256 48.6065 169.467 30.2182 181.249C29.3967 181.764 28.5752 182.278 27.7288 182.808C20.7039 187.37 15.1313 192.436 9.69064 198.045C9.29252 198.45 8.89439 198.854 8.48421 199.271C-0.412201 208.412 -7.33397 218.714 -11.77 229.536C-12.0779 229.536 -12.3859 229.536 -12.7031 229.536C-13.8263 221.393 -11.7766 216.198 -6.31557 209.22C-5.27673 207.891 -4.28492 206.547 -3.29948 205.196C17.8226 176.873 56.0736 159.447 96.6828 150.493C119.397 145.739 142.524 143.139 165.9 141.101C166.754 141.026 167.608 140.951 168.488 140.874C182.482 139.657 196.491 138.621 210.524 137.689C211.479 137.626 212.434 137.562 213.418 137.497C222.204 136.915 230.993 136.344 239.781 135.778C261.117 134.402 282.395 132.882 303.63 130.795C304.51 130.709 305.39 130.623 306.296 130.534C390.359 122.609 433.942 104.271 454.47 89.2251C468.552 74.6112 476.126 56.6807 472.816 38.9622C469.809 25.5513 462.443 13.736 453.739 1.91729C452.9 0.699805 452.9 0.699805 452.9 0Z" fill="#643366"/>
</svg>
