<svg width="79" height="160" viewBox="0 0 79 160" fill="none" xmlns="http://www.w3.org/2000/svg">
<path d="M0.414378 0.47317C0.772822 0.427892 1.13127 0.382615 1.50057 0.335965C1.8569 1.06946 2.21323 1.80295 2.58035 2.55867C14.9503 27.9045 29.5586 52.2676 45.0897 76.5212C45.4489 77.0823 45.8081 77.6435 46.1782 78.2216C49.7874 83.8587 53.4028 89.4934 57.0447 95.118C65.9556 108.886 74.2975 122.723 81.3832 137.13C84.4823 143.418 87.9481 149.058 92.7159 154.714C93.1828 155.444 93.6497 156.175 94.1307 156.928C92.8054 157.885 91.48 158.842 90.1146 159.828C81.4673 153.131 77.4151 144.709 73.295 136.029C67.3593 123.597 60.2123 111.739 52.5788 99.8927C50.9231 97.3169 49.2835 94.735 47.6426 92.1535C45.0246 88.0374 42.4005 83.9235 39.7697 79.8122C31.8052 67.3651 23.8527 54.9142 16.215 42.345C15.8689 41.7763 15.5227 41.2075 15.166 40.6215C7.26582 27.5898 0.702161 15.2978 0.414378 0.47317Z" fill="#643366"/>
</svg>
