<svg width="439" height="201" viewBox="0 0 439 201" fill="none" xmlns="http://www.w3.org/2000/svg">
<path d="M32.6449 278.768C30.8083 278.969 28.9717 279.169 27.0795 279.375C9.3524 261.957 -2.98181 239.903 0.64704 216.662C4.70864 196.851 19.6229 180.904 40.4302 168.366C90.3132 139.334 160.779 128.639 219.558 118.152C221.033 117.889 221.033 117.889 222.537 117.621C232.553 115.835 242.571 114.057 252.594 112.3C271.488 108.986 290.342 105.607 309.1 101.75C309.843 101.597 310.587 101.444 311.353 101.287C331.704 97.0906 351.718 92.342 371.058 85.5757C371.798 85.3194 372.538 85.0631 373.3 84.7991C395.641 76.9601 416.178 66.4599 433.18 52.753C433.941 52.1528 434.702 51.5526 435.486 50.9341C441.975 45.6365 446.965 39.9969 451.766 33.8308C452.117 33.3852 452.469 32.9396 452.832 32.4805C460.685 22.4286 466.448 11.4369 469.685 0.198148C469.991 0.164758 470.297 0.131369 470.612 0.0969674C472.612 8.07022 471.138 13.4565 466.466 20.986C465.577 22.4197 464.737 23.8629 463.904 25.3132C445.977 55.7593 409.842 77.2303 370.443 90.5355C348.378 97.7241 325.669 102.817 302.652 107.378C301.811 107.545 300.97 107.712 300.104 107.884C286.324 110.611 272.511 113.16 258.662 115.608C257.719 115.775 256.777 115.941 255.805 116.113C247.134 117.644 238.459 119.165 229.784 120.68C208.723 124.362 187.736 128.181 166.851 132.558C165.986 132.739 165.121 132.92 164.23 133.106C81.5224 150.101 40.1846 173.056 21.4095 190.239C8.99525 206.294 3.40955 224.94 8.6221 242.195C13.0651 255.201 21.6685 266.148 31.6034 276.953C32.569 278.073 32.569 278.073 32.6449 278.768Z" fill="#643366"/>
</svg>
