<svg width="205" height="245" viewBox="0 0 205 245" fill="none" xmlns="http://www.w3.org/2000/svg">
<path d="M126.622 22.0396C139.996 30.7887 150.491 40.5322 159.999 51.6971C160.483 52.2641 160.968 52.8312 161.466 53.4154C184.861 81.172 198.799 114.547 204.254 147.016C204.407 147.81 204.559 148.603 204.716 149.421C205.061 152.457 205.292 154.574 202.645 157.003C200.233 158.431 197.763 159.582 195.105 160.739C193.102 161.686 191.1 162.634 189.099 163.585C188.044 164.074 186.989 164.563 185.902 165.068C180.583 167.592 175.488 170.35 170.354 173.079C147.811 184.9 124.794 196.244 100.992 206.59C100.046 207.003 99.1003 207.415 98.1256 207.84C73.3552 218.621 48.3246 228.986 22.2694 237.92C21.3521 238.237 20.4347 238.555 19.4896 238.883C13.003 241.075 6.9359 242.476 0 244.037C0 166.241 0 88.4458 0 8.29303C44.6227 -6.5812 89.5247 -1.11798 126.622 22.0396Z" fill="#2A3E5B"/>
</svg>
